<?xml version="1.0" standalone="no"?>
<!DOCTYPE svg PUBLIC "-//W3C//DTD SVG 20010904//EN"
 "http://www.w3.org/TR/2001/REC-SVG-20010904/DTD/svg10.dtd">
<svg version="1.0" xmlns="http://www.w3.org/2000/svg"
 width="300.000000pt" height="300.000000pt" viewBox="0 0 300.000000 300.000000"
 preserveAspectRatio="xMidYMid meet">
<path fill="#57d3de" d="M0 0 h 300 v 300 h -300 z"/>
<g transform="translate(0.000000,300.000000) scale(0.100000,-0.100000)"
fill="#800080" stroke="none">
<path d="M2388 2423 c7 -3 16 -2 19 1 4 3 -2 6 -13 5 -11 0 -14 -3 -6 -6z"/>
<path d="M2436 2422 c-3 -5 8 -6 25 -4 16 2 29 6 29 8 0 8 -49 4 -54 -4z"/>
<path d="M2310 2416 c0 -10 28 -13 41 -5 10 6 7 9 -13 9 -16 0 -28 -2 -28 -4z"/>
<path d="M2501 2415 c3 -2 23 -7 45 -9 86 -10 151 -37 181 -75 8 -10 12 -11
13 -4 0 19 -81 69 -130 80 -50 11 -117 16 -109 8z"/>
<path d="M2055 2373 c-60 -13 -126 -27 -145 -30 -19 -3 -38 -11 -42 -17 -6 -8
-10 -7 -17 2 -7 11 -19 12 -62 3 -30 -6 -82 -12 -116 -14 -46 -1 -63 -6 -66
-18 -5 -20 -107 -27 -107 -7 0 9 -3 9 -12 0 -19 -19 -41 -15 -33 6 4 11 3 13
-3 7 -6 -5 -12 -19 -14 -30 -2 -11 -9 -19 -16 -18 -6 2 -9 -4 -6 -12 5 -11 11
-12 24 -5 30 16 34 11 9 -9 -13 -11 -27 -15 -30 -10 -9 16 -39 -2 -39 -23 0
-11 -5 -29 -11 -40 -14 -26 2 -37 45 -32 23 4 27 2 16 -5 -13 -9 -13 -11 3
-12 26 -2 31 -4 44 -12 9 -6 11 -3 7 10 -5 17 -4 16 10 -1 8 -10 17 -23 18
-28 2 -5 19 -1 39 9 22 11 34 23 31 32 -2 8 0 11 6 7 11 -6 22 16 22 42 -1 11
-6 8 -16 -10 -8 -16 -19 -28 -24 -28 -6 0 -10 -7 -10 -15 0 -8 -4 -15 -9 -15
-5 0 -16 -3 -25 -6 -11 -4 -16 -1 -16 10 0 16 -10 20 -42 17 -10 -1 -18 3 -18
8 0 6 -9 11 -19 11 -47 0 -36 35 23 73 51 32 63 33 94 7 19 -16 21 -23 12 -40
-11 -20 -21 -27 -19 -12 4 27 -2 44 -13 35 -7 -5 -26 -10 -43 -11 -64 -4 -47
-40 25 -49 95 -13 99 89 4 107 -37 7 -37 8 -8 9 30 1 88 -21 80 -30 -2 -2 2
-9 9 -16 10 -9 17 -7 31 9 16 18 17 21 2 15 -9 -3 -18 0 -21 6 -4 12 18 17 78
17 20 0 38 10 57 30 15 18 33 28 41 24 8 -3 18 -1 21 5 4 6 16 6 36 -1 23 -7
34 -7 45 2 10 8 15 9 15 2 0 -18 -34 -31 -53 -21 -11 7 -23 6 -34 -1 -17 -11
-17 -11 0 -6 10 3 28 1 39 -5 16 -8 24 -7 41 8 12 11 29 19 37 18 8 0 22 7 31
17 9 10 18 16 20 14 2 -2 23 -1 47 4 25 4 42 4 42 -2 0 -10 42 0 50 12 3 4 25
15 50 23 67 24 14 19 -115 -10z m-415 -83 c0 -5 -4 -10 -10 -10 -5 0 -10 5
-10 10 0 6 5 10 10 10 6 0 10 -4 10 -10z m82 3 c-6 -3 -9 -9 -6 -15 4 -6 1 -9
-6 -6 -23 7 -21 24 2 25 13 0 17 -1 10 -4z"/>
<path d="M2220 2395 c0 -7 30 -13 34 -7 3 4 -4 9 -15 9 -10 1 -19 0 -19 -2z"/>
<path d="M2136 2328 l-21 -17 27 -1 c20 0 26 4 22 15 -5 11 0 15 17 14 13 0
18 -3 11 -6 -19 -7 -4 -23 16 -16 15 5 15 4 2 -10 -8 -9 -26 -18 -40 -21 -14
-2 -34 -8 -44 -12 -14 -5 -17 -4 -12 4 4 7 3 12 -2 12 -6 0 -12 -6 -15 -14 -4
-11 -67 -30 -92 -27 -2 0 -23 -6 -46 -14 -49 -18 -62 -19 -54 -5 4 6 10 8 15
5 4 -3 13 2 20 10 21 25 -6 17 -39 -11 -31 -26 -61 -27 -61 -1 0 7 5 18 12 25
8 8 8 12 1 12 -6 0 -13 -7 -17 -15 -3 -8 -17 -15 -31 -15 -24 0 -30 9 -26 38
1 6 -5 12 -14 12 -18 0 -19 -12 -3 -28 9 -9 8 -12 -7 -12 -10 0 -15 -3 -12 -7
4 -3 1 -13 -5 -22 -9 -11 -5 -10 9 2 20 17 50 16 39 -2 -3 -4 5 -8 16 -8 26
-2 30 -7 23 -26 -7 -16 -44 -29 -67 -24 -7 2 -10 2 -5 0 17 -10 5 -22 -20 -19
-16 2 -22 1 -15 -1 7 -3 10 -9 7 -14 -4 -5 5 -8 19 -7 15 1 26 6 26 11 0 4 5
5 10 2 6 -3 10 -2 10 3 0 13 70 49 110 57 19 4 78 19 130 35 52 15 114 33 137
39 24 6 47 21 53 31 6 11 25 26 43 33 30 13 29 13 -37 13 -51 0 -74 -4 -90
-18z"/>
<path d="M2374 2341 c3 -5 15 -7 26 -4 28 7 25 13 -6 13 -14 0 -23 -4 -20 -9z"/>
<path d="M1445 2329 c-194 -16 -394 -99 -536 -222 -14 -12 -72 -58 -129 -102
-136 -106 -198 -162 -206 -189 -3 -11 -16 -32 -29 -46 -12 -14 -35 -47 -50
-75 -15 -27 -32 -57 -39 -65 -10 -13 -9 -13 6 -1 26 20 22 5 -11 -37 -15 -20
-42 -75 -58 -122 -17 -47 -38 -102 -47 -123 -9 -22 -12 -36 -7 -33 6 4 2 -13
-9 -36 -26 -56 -25 -77 1 -44 11 14 17 30 14 36 -3 5 -1 10 4 10 6 0 11 -8 11
-17 0 -15 2 -15 14 2 9 13 11 27 6 41 -11 29 -8 49 13 72 10 11 17 23 16 28
-3 20 2 35 10 30 11 -7 23 22 15 35 -10 16 6 31 21 19 9 -8 15 -8 20 0 3 5 1
10 -6 10 -8 0 -8 4 1 15 7 8 17 12 24 8 7 -4 6 -1 -1 9 -7 8 -10 18 -6 21 3 4
4 7 0 7 -3 0 -13 -7 -21 -16 -17 -16 -36 -11 -36 9 0 8 3 7 9 -2 7 -11 11 -8
16 10 4 13 16 30 27 37 10 8 15 19 11 25 -4 7 0 6 10 -2 9 -7 17 -12 18 -10 0
2 2 19 4 37 2 19 12 40 22 48 22 16 10 18 -20 2 -12 -6 1 12 30 40 28 29 56
52 62 52 13 0 15 27 2 34 -5 3 -8 -2 -7 -11 0 -9 -5 -18 -12 -20 -8 -3 -10 1
-5 14 10 28 25 44 50 54 13 5 22 14 21 21 -2 6 6 14 17 16 11 2 25 9 30 14 7
8 5 9 -5 4 -8 -4 -4 2 10 13 14 12 35 24 47 27 12 3 29 17 38 31 9 14 23 22
30 19 9 -3 12 0 8 9 -3 9 3 18 13 21 11 4 33 17 51 30 34 26 123 43 123 24 0
-6 5 -8 12 -4 11 7 26 10 83 18 11 2 24 -2 28 -8 6 -7 7 -6 5 4 -3 8 -15 17
-28 20 -20 5 -21 7 -7 18 10 8 17 9 21 3 5 -7 14 -7 29 0 24 11 54 49 38 49
-5 0 -11 -5 -13 -11 -2 -6 -23 -11 -46 -11 -23 0 -42 -4 -42 -9 0 -6 -3 -8 -7
-6 -5 3 -14 -1 -21 -9 -11 -12 -10 -14 5 -14 16 0 16 -2 2 -15 -17 -17 -53
-10 -42 8 4 6 1 7 -7 2 -7 -4 -28 -11 -47 -15 -29 -7 -32 -6 -22 6 7 8 14 12
16 10 3 -3 15 7 28 22 20 24 24 25 41 12 10 -8 15 -10 11 -4 -11 19 21 51 60
59 21 5 44 9 50 11 7 1 20 9 29 18 17 18 28 21 19 6 -3 -5 3 -10 14 -10 11 0
23 5 26 11 4 5 18 14 32 20 13 5 22 13 19 18 -8 12 155 35 203 29 20 -3 47 -2
61 2 39 10 -49 16 -135 9z m-940 -679 c3 -5 -1 -10 -10 -10 -9 0 -13 5 -10 10
3 6 8 10 10 10 2 0 7 -4 10 -10z"/>
<path d="M2490 2321 c-7 -11 -24 -21 -37 -24 -27 -5 -32 9 -5 16 15 4 15 5 -1
6 -11 1 -21 -8 -24 -20 -5 -16 -11 -19 -30 -14 -19 4 -23 3 -17 -7 6 -10 5
-11 -7 -1 -12 10 -19 8 -33 -8 -11 -13 -25 -19 -37 -16 -11 3 -32 -1 -47 -8
-43 -21 -75 -29 -68 -17 4 6 -13 0 -37 -14 -25 -13 -63 -25 -86 -27 -22 -1
-41 -5 -41 -9 0 -5 -9 -8 -20 -8 -52 0 -250 -68 -250 -86 0 -3 5 -2 10 1 6 3
10 2 10 -4 0 -5 -4 -13 -10 -16 -5 -3 -10 -12 -9 -18 0 -9 2 -9 6 1 2 6 13 12
23 12 10 0 22 5 25 10 4 6 11 8 16 5 5 -4 9 -1 9 4 0 6 3 10 8 10 4 -1 26 1
49 6 32 6 40 11 36 23 -4 10 -2 13 5 8 7 -4 12 -3 12 2 0 5 6 9 13 9 38 1 102
15 115 25 13 11 15 10 9 -4 -4 -12 -2 -15 8 -11 8 3 13 8 11 12 -2 3 9 7 25 8
15 1 42 9 59 18 17 9 52 20 78 26 26 5 64 14 84 18 21 5 43 13 50 19 7 6 42
15 78 22 36 6 79 16 96 21 41 12 94 11 94 -2 0 -6 -7 -17 -15 -25 -8 -9 -15
-11 -15 -5 0 6 -7 8 -15 5 -9 -4 -15 0 -15 10 0 9 -5 16 -11 16 -7 0 -10 -12
-7 -30 5 -34 -11 -45 -30 -21 -11 13 -13 13 -9 1 4 -15 -24 -41 -55 -53 -11
-4 -21 0 -27 11 -10 16 -10 16 -11 0 0 -18 7 -21 43 -21 13 0 15 -3 6 -13 -14
-16 -39 -19 -39 -3 0 5 -5 7 -11 3 -8 -4 -7 -9 2 -15 12 -8 11 -11 -1 -19 -8
-5 -20 -10 -27 -10 -6 0 -14 -6 -17 -12 -5 -10 -7 -10 -12 0 -8 18 -24 15 -24
-5 0 -9 -3 -14 -6 -10 -4 3 -22 -5 -41 -18 -20 -13 -44 -22 -54 -20 -11 2 -17
0 -15 -4 3 -4 -14 -19 -37 -32 -23 -13 -54 -30 -69 -39 -103 -58 -157 -92
-170 -107 -8 -10 -25 -45 -37 -78 -12 -33 -33 -74 -47 -92 -14 -18 -22 -33
-18 -33 4 0 -1 -10 -12 -22 -17 -19 -56 -132 -69 -200 -2 -9 -8 -25 -13 -35
-12 -21 -12 -22 -12 -70 0 -28 -3 -34 -10 -23 -8 12 -10 9 -10 -12 0 -14 -3
-34 -7 -44 -5 -13 -3 -16 10 -11 14 5 17 0 17 -28 0 -18 5 -37 10 -40 16 -10
12 -25 -7 -25 -11 0 -14 3 -7 8 8 5 6 12 -5 24 -15 15 -16 14 -15 -19 1 -19
-2 -49 -7 -66 -5 -17 -5 -35 -1 -39 5 -5 14 9 21 31 15 53 31 61 25 14 -3 -21
-6 -57 -8 -81 -1 -23 -8 -48 -15 -55 -10 -10 -12 -8 -9 8 4 24 -33 29 -39 5
-4 -13 -3 -13 6 0 15 22 23 7 31 -57 6 -44 8 -50 9 -23 2 28 4 31 10 15 5 -11
6 -25 4 -31 -2 -7 0 -29 6 -50 5 -22 13 -59 16 -83 3 -23 11 -54 16 -68 17
-45 20 -104 7 -121 -7 -9 -8 -13 -2 -9 7 4 12 -2 12 -18 0 -14 -4 -22 -9 -19
-5 2 -2 -11 6 -30 8 -20 15 -46 15 -59 0 -14 13 -35 30 -50 22 -20 30 -23 30
-12 0 9 -10 20 -22 26 -18 8 -24 20 -26 51 -3 42 -3 42 18 23 20 -19 21 -19
13 1 -4 10 -12 25 -19 31 -7 8 -10 28 -7 52 4 25 -6 84 -26 169 -27 110 -31
147 -29 234 1 57 1 172 -1 256 -2 110 1 157 10 168 6 8 10 17 7 20 -3 3 3 37
13 75 17 63 51 142 110 249 10 19 29 57 41 84 21 44 33 55 124 110 56 34 144
81 195 105 127 59 148 70 219 116 34 22 99 64 146 94 46 29 84 57 84 63 0 5
-5 6 -10 3 -6 -4 -26 -1 -45 5 -19 6 -67 12 -107 13 -40 1 -75 5 -78 9 -3 4
-12 -1 -20 -11z m-697 -236 c-3 -9 -8 -14 -10 -11 -3 3 -2 9 2 15 9 16 15 13
8 -4z"/>
<path d="M2025 2320 c-17 -7 -15 -9 13 -9 17 -1 32 4 32 9 0 12 -17 12 -45 0z"/>
<path d="M1910 2280 c-20 -12 -10 -19 14 -10 11 3 15 9 10 13 -6 3 -16 2 -24
-3z"/>
<path d="M1980 2274 c-29 -16 -8 -19 22 -3 16 8 23 8 30 -2 8 -11 9 -11 5 1
-5 20 -26 21 -57 4z"/>
<path d="M2065 2280 c-3 -5 1 -10 9 -10 9 0 16 5 16 10 0 6 -4 10 -9 10 -6 0
-13 -4 -16 -10z"/>
<path d="M1806 2271 c-12 -5 -15 -10 -9 -14 6 -4 16 0 23 8 14 17 13 17 -14 6z"/>
<path d="M1340 2245 c-14 -8 -37 -14 -51 -15 -14 0 -34 -9 -44 -20 -18 -20
-18 -21 -1 -38 14 -14 16 -14 11 -1 -7 19 20 44 57 53 14 3 34 9 44 13 12 4
15 3 10 -5 -4 -7 -3 -12 3 -12 6 0 15 9 21 20 9 17 8 20 -7 20 -10 -1 -29 -7
-43 -15z"/>
<path d="M1190 2209 c0 -5 5 -7 10 -4 6 3 10 8 10 11 0 2 -4 4 -10 4 -5 0 -10
-5 -10 -11z"/>
<path d="M1140 2199 c0 -5 5 -7 10 -4 6 3 10 8 10 11 0 2 -4 4 -10 4 -5 0 -10
-5 -10 -11z"/>
<path d="M1330 2201 c0 -5 5 -13 10 -16 6 -3 10 -2 10 4 0 5 -4 13 -10 16 -5
3 -10 2 -10 -4z"/>
<path d="M1786 2184 c-11 -8 -16 -14 -10 -14 13 0 39 18 34 24 -3 2 -14 -2
-24 -10z"/>
<path d="M1294 2168 c6 -37 -36 -64 -48 -31 -3 8 -10 11 -16 8 -5 -3 -10 -1
-10 6 0 7 -3 9 -6 6 -4 -4 -1 -13 5 -21 7 -8 11 -19 8 -23 -3 -4 16 -8 41 -8
34 0 46 -4 44 -13 -1 -8 2 -11 8 -7 6 3 8 11 4 16 -3 6 2 17 12 25 18 14 18
14 -3 5 -29 -15 -32 -14 -26 8 3 11 0 28 -6 38 -10 15 -10 14 -7 -9z"/>
<path d="M2355 2150 c-3 -5 -3 -10 2 -10 4 -1 -3 -7 -16 -14 -14 -8 -31 -12
-38 -9 -8 3 -13 0 -11 -8 2 -7 -9 -15 -27 -19 -25 -5 -27 -7 -11 -13 11 -5 25
-2 35 6 26 22 87 47 115 47 14 0 26 4 26 10 0 6 -15 8 -36 4 -25 -4 -34 -2
-29 5 3 6 4 11 1 11 -3 0 -8 -4 -11 -10z"/>
<path d="M2135 2140 c-3 -5 -1 -10 4 -10 6 0 11 5 11 10 0 6 -2 10 -4 10 -3 0
-8 -4 -11 -10z"/>
<path d="M1676 2107 c-11 -8 -17 -18 -15 -23 2 -5 14 1 26 14 24 24 17 30 -11
9z"/>
<path d="M2025 2109 c-5 -7 -3 -10 6 -7 8 3 22 1 32 -4 11 -5 17 -5 17 2 0 5
-4 10 -9 10 -5 0 -16 3 -24 6 -8 3 -18 0 -22 -7z"/>
<path d="M2250 2109 c0 -5 5 -7 10 -4 6 3 10 8 10 11 0 2 -4 4 -10 4 -5 0 -10
-5 -10 -11z"/>
<path d="M2200 2099 c0 -5 -5 -7 -12 -3 -6 4 -8 3 -4 -4 3 -6 2 -13 -4 -17 -5
-3 -10 -2 -10 3 0 6 -9 8 -20 5 -11 -3 -20 -9 -20 -14 0 -5 -7 -5 -17 -2 -10
4 -14 2 -9 -5 9 -15 -13 -27 -27 -13 -13 13 -41 15 -33 3 11 -19 -15 -37 -55
-37 -29 0 -44 -5 -46 -15 -4 -13 -3 -13 6 0 9 13 11 13 11 1 0 -12 3 -12 12
-3 14 14 42 16 33 2 -7 -11 23 -3 41 11 6 5 15 5 19 1 5 -4 5 2 1 12 -6 16 -4
17 10 6 13 -12 17 -11 24 0 5 8 12 11 16 7 4 -4 17 -1 28 6 12 7 35 12 52 12
30 -1 31 0 22 27 -10 29 -18 36 -18 17z"/>
<path d="M1967 2093 c-12 -12 -7 -22 8 -17 8 4 15 10 15 15 0 11 -14 12 -23 2z"/>
<path d="M1367 2084 c-4 -4 -7 -17 -7 -28 1 -19 1 -20 11 -3 11 19 8 43 -4 31z"/>
<path d="M1198 2073 c7 -3 16 -2 19 1 4 3 -2 6 -13 5 -11 0 -14 -3 -6 -6z"/>
<path d="M1326 2065 c-3 -8 -1 -15 4 -15 13 0 22 18 11 24 -5 3 -11 -1 -15 -9z"/>
<path d="M2000 2069 c0 -5 5 -7 10 -4 6 3 10 8 10 11 0 2 -4 4 -10 4 -5 0 -10
-5 -10 -11z"/>
<path d="M1065 2055 c-27 -8 -51 -19 -53 -25 -2 -5 -8 -8 -13 -4 -5 3 -14 2
-21 -2 -8 -5 -6 -10 8 -15 12 -4 26 -1 36 8 9 9 37 18 61 20 28 3 44 10 44 19
0 16 3 16 -62 -1z"/>
<path d="M1155 2049 c-23 -9 -21 -10 20 -14 146 -13 178 -14 145 -5 -19 5 -57
12 -85 16 -27 3 -52 8 -55 9 -3 1 -14 -1 -25 -6z"/>
<path d="M1675 2050 c4 -6 1 -17 -5 -26 -11 -12 -9 -14 11 -10 13 2 32 -1 42
-6 13 -6 17 -5 17 7 0 9 -8 18 -17 21 -10 3 -26 10 -37 15 -13 8 -16 7 -11 -1z"/>
<path d="M1800 2046 c0 -2 7 -6 15 -10 8 -3 15 -1 15 4 0 6 -7 10 -15 10 -8 0
-15 -2 -15 -4z"/>
<path d="M903 2029 c3 -9 0 -22 -6 -29 -16 -16 43 10 61 27 11 11 11 13 0 13
-8 0 -20 -6 -26 -12 -10 -10 -15 -10 -23 2 -9 13 -10 13 -6 -1z"/>
<path d="M1860 2030 c0 -13 11 -13 30 0 12 8 11 10 -7 10 -13 0 -23 -4 -23
-10z"/>
<path d="M1780 2017 c0 -10 -6 -14 -14 -11 -7 3 -16 -1 -19 -8 -3 -9 2 -14 14
-14 19 0 37 32 25 43 -3 4 -6 -1 -6 -10z"/>
<path d="M1105 2010 c-3 -5 1 -10 9 -10 9 0 16 5 16 10 0 6 -4 10 -9 10 -6 0
-13 -4 -16 -10z"/>
<path d="M1160 2005 c0 -17 7 -21 40 -22 22 -1 41 1 44 5 2 4 -12 8 -32 9 -19
1 -39 8 -43 15 -6 9 -9 7 -9 -7z"/>
<path d="M1896 2008 c3 -5 10 -6 15 -3 13 9 11 12 -6 12 -8 0 -12 -4 -9 -9z"/>
<path d="M1020 1990 c-11 -11 -22 -20 -25 -19 -3 0 -11 -2 -18 -4 -6 -3 -2 -6
10 -6 12 -1 28 6 36 14 9 8 17 11 20 7 2 -4 2 -1 1 6 -3 8 5 11 24 7 22 -4 24
-4 7 4 -29 14 -33 13 -55 -9z"/>
<path d="M1558 1993 c11 -19 9 -24 -9 -33 -11 -7 -27 -9 -35 -6 -8 3 -13 2 -9
-3 8 -14 -17 -19 -43 -9 -17 6 -23 5 -20 -4 9 -26 68 -20 117 11 26 17 50 31
54 31 3 0 5 -12 4 -27 -2 -18 -11 -32 -26 -39 -39 -20 -41 -29 -6 -29 18 0 31
3 28 8 -2 4 7 7 21 7 16 0 26 6 26 14 0 8 6 17 13 19 6 3 0 6 -15 6 -33 1 -43
15 -22 32 14 11 18 11 28 -1 6 -8 22 -15 36 -16 14 -1 34 -4 45 -8 19 -8 19
-7 -1 11 -12 10 -24 26 -27 36 -4 10 -12 15 -18 11 -8 -4 -7 -9 2 -15 11 -6
10 -9 -3 -14 -9 -4 -27 0 -40 8 -13 8 -36 13 -53 11 -16 -1 -36 2 -44 9 -12
10 -13 9 -3 -10z"/>
<path d="M1501 1989 c-14 -5 -36 -9 -50 -8 -44 3 -71 -1 -71 -10 0 -6 12 -6
29 -1 16 4 32 6 35 3 8 -9 96 7 96 18 0 11 -8 11 -39 -2z"/>
<path d="M815 1980 c-3 -6 1 -7 9 -4 18 7 21 14 7 14 -6 0 -13 -4 -16 -10z"/>
<path d="M866 1972 c-4 -10 -13 -19 -21 -20 -8 -1 -22 -3 -30 -4 -8 -1 -12 -4
-10 -8 2 -4 18 -5 35 -2 18 2 30 0 30 -7 0 -6 -9 -11 -20 -11 -11 0 -20 -5
-20 -11 0 -7 8 -9 23 -4 12 4 46 9 75 12 29 3 55 10 59 16 4 6 -7 7 -31 3 -24
-5 -36 -3 -36 4 0 6 5 8 10 5 6 -3 10 -1 10 4 0 15 -11 13 -34 -4 -25 -19 -38
-10 -30 21 7 28 -2 33 -10 6z"/>
<path d="M1300 1980 c-12 -8 -9 -10 13 -10 15 0 27 5 27 10 0 13 -20 13 -40 0z"/>
<path d="M1803 1980 c2 -8 10 -14 17 -12 7 1 20 -3 29 -10 9 -7 13 -8 9 -4 -4
5 -2 16 5 24 10 13 9 14 -3 7 -20 -12 -43 -12 -53 0 -5 6 -7 4 -4 -5z"/>
<path d="M1160 1948 c0 -4 4 -8 9 -8 6 0 12 4 15 8 3 5 -1 9 -9 9 -8 0 -15 -4
-15 -9z"/>
<path d="M988 1918 c-21 -21 -11 -24 15 -4 10 8 15 16 10 18 -4 3 -16 -3 -25
-14z"/>
<path d="M1080 1927 c0 -11 -50 -27 -125 -42 -27 -6 -135 -58 -135 -67 0 -10
44 3 55 16 13 16 57 32 125 46 30 7 64 17 75 23 28 15 88 20 80 7 -4 -6 6 -10
24 -10 16 0 33 5 36 10 4 7 -3 9 -22 5 -21 -5 -24 -4 -13 4 12 9 9 11 -15 12
-16 1 -42 3 -57 5 -17 2 -28 -2 -28 -9z"/>
<path d="M735 1910 c-26 -28 -15 -31 12 -3 12 13 19 23 14 23 -4 0 -16 -9 -26
-20z"/>
<path d="M1667 1894 c-28 -15 -36 -26 -14 -21 7 1 11 -7 10 -18 -1 -11 3 -23
9 -26 21 -13 -4 -30 -34 -24 -21 5 -28 4 -24 -4 4 -6 12 -9 17 -6 5 4 9 1 9
-4 0 -16 16 -13 34 4 8 8 21 15 28 15 9 1 8 4 -3 10 -17 10 -15 59 4 71 21 14
-10 16 -36 3z"/>
<path d="M1430 1885 c0 -8 2 -15 4 -15 2 0 6 7 10 15 3 8 1 15 -4 15 -6 0 -10
-7 -10 -15z"/>
<path d="M1485 1890 c-3 -5 3 -10 15 -10 12 0 18 5 15 10 -3 6 -10 10 -15 10
-5 0 -12 -4 -15 -10z"/>
<path d="M1255 1880 c3 -5 10 -10 16 -10 5 0 9 5 9 10 0 6 -7 10 -16 10 -8 0
-12 -4 -9 -10z"/>
<path d="M1720 1880 c-12 -8 -10 -10 8 -10 13 0 20 4 17 10 -7 12 -6 12 -25 0z"/>
<path d="M685 1870 c-3 -5 -1 -10 4 -10 6 0 11 5 11 10 0 6 -2 10 -4 10 -3 0
-8 -4 -11 -10z"/>
<path d="M844 1864 c4 -11 1 -14 -12 -10 -13 4 -32 -7 -62 -34 -24 -22 -41
-43 -38 -46 3 -3 25 13 48 36 22 22 46 38 51 34 13 -7 41 15 33 27 -9 15 -26
10 -20 -7z"/>
<path d="M1088 1866 c-26 -20 -22 -26 12 -16 19 6 32 5 36 -2 4 -7 2 -8 -4 -4
-7 4 -12 2 -12 -3 0 -16 26 -13 40 4 15 19 13 21 -25 29 -18 3 -37 0 -47 -8z"/>
<path d="M1525 1870 c-3 -5 1 -10 10 -10 8 0 24 -6 35 -12 15 -10 22 -10 32 0
9 9 8 12 -5 12 -25 0 -30 1 -49 11 -10 6 -19 5 -23 -1z"/>
<path d="M1315 1849 c-17 -17 -17 -19 -2 -14 20 8 23 -5 5 -23 -21 -21 8 -14
33 8 13 11 20 20 14 19 -24 -3 -34 2 -29 16 8 20 3 18 -21 -6z"/>
<path d="M1030 1851 c0 -8 -8 -11 -20 -8 -11 3 -20 1 -20 -4 0 -5 -3 -8 -7 -7
-5 2 -19 -5 -33 -15 -30 -21 -22 -22 15 -3 15 8 33 12 40 10 14 -6 41 23 31
33 -3 3 -6 1 -6 -6z"/>
<path d="M1477 1842 c5 -12 1 -14 -20 -8 -14 3 -29 2 -32 -4 -3 -5 -14 -10
-24 -10 -10 0 -25 -8 -32 -17 -13 -16 -12 -17 3 -4 10 7 38 14 62 16 24 2 49
6 55 9 16 10 14 1 -9 -36 -11 -18 -20 -29 -20 -24 0 5 -6 4 -12 -1 -7 -6 -23
-13 -35 -16 -18 -4 -23 -1 -23 15 0 10 -5 16 -10 13 -6 -4 -8 -10 -5 -15 3 -4
-6 -10 -18 -14 -13 -3 -36 -17 -52 -30 -16 -14 -31 -24 -34 -24 -10 2 -81 -32
-81 -38 0 -3 12 -3 26 0 17 5 23 3 19 -4 -3 -5 -2 -10 4 -10 6 0 15 -15 20
-32 9 -30 10 -31 16 -11 7 22 31 37 45 28 4 -3 10 2 14 10 3 8 13 15 23 15 14
0 15 2 4 9 -11 7 -6 13 18 26 22 11 31 21 27 31 -3 9 -2 12 5 9 5 -4 27 6 47
22 20 15 38 26 39 23 2 -3 10 6 20 19 12 18 13 26 5 29 -7 2 -10 7 -8 11 2 3
-6 11 -19 17 -19 10 -22 9 -18 -4z m-87 -111 c0 -13 -82 -77 -107 -83 -13 -4
-23 -5 -23 -4 0 12 61 67 69 62 5 -4 15 3 21 14 11 20 40 28 40 11z"/>
<path d="M930 1835 c-14 -8 -20 -14 -14 -15 5 0 19 7 30 15 24 18 16 19 -16 0z"/>
<path d="M1220 1834 c0 -8 5 -12 10 -9 6 3 10 10 10 16 0 5 -4 9 -10 9 -5 0
-10 -7 -10 -16z"/>
<path d="M676 1809 c-21 -11 -41 -29 -43 -40 -3 -10 -9 -17 -12 -14 -4 2 -8
-3 -8 -12 0 -10 12 -2 32 21 17 20 35 36 41 36 6 0 19 7 30 15 28 21 5 18 -40
-6z"/>
<path d="M1085 1817 c-22 -13 -31 -37 -15 -37 6 0 10 5 10 11 0 7 8 18 18 25
21 17 14 17 -13 1z"/>
<path d="M1233 1818 c-13 -6 -23 -15 -23 -20 0 -4 -4 -8 -10 -8 -5 0 -7 7 -4
15 5 13 -13 15 -76 5 -3 0 1 -4 8 -9 12 -7 12 -12 1 -30 -8 -11 -18 -20 -24
-19 -5 1 -28 -8 -50 -20 -26 -15 -31 -20 -15 -16 14 3 29 10 35 15 5 5 17 9
27 9 9 0 21 6 25 14 9 16 43 24 58 14 6 -3 28 9 50 28 40 34 39 42 -2 22z"/>
<path d="M1285 1810 c3 -5 8 -10 11 -10 2 0 4 5 4 10 0 6 -5 10 -11 10 -5 0
-7 -4 -4 -10z"/>
<path d="M955 1774 c-71 -40 -62 -44 21 -9 32 13 53 24 46 25 -7 0 -10 5 -7
10 8 12 11 14 -60 -26z"/>
<path d="M804 1785 c-15 -11 -16 -14 -3 -15 8 0 24 7 35 15 15 11 16 14 3 15
-8 0 -24 -7 -35 -15z"/>
<path d="M1028 1779 c-14 -15 -15 -19 -4 -19 8 0 16 -6 19 -12 2 -7 4 2 5 20
0 17 0 32 -1 31 -1 0 -10 -9 -19 -20z"/>
<path d="M885 1780 c3 -6 -4 -14 -17 -19 -26 -10 -74 -56 -90 -86 -7 -12 5 -5
30 18 23 20 52 37 65 38 13 0 16 3 8 6 -11 4 -9 10 9 23 20 15 20 18 6 23 -10
4 -15 3 -11 -3z"/>
<path d="M1270 1775 c-7 -8 -18 -15 -24 -14 -24 3 -36 -2 -61 -25 -18 -17 -22
-26 -13 -29 7 -3 0 -6 -17 -6 -16 -1 -41 -4 -54 -8 -16 -4 -22 -3 -17 5 4 8
-3 8 -26 1 -35 -10 -89 -59 -65 -59 8 0 22 10 31 23 10 14 14 16 10 5 -7 -20
20 -26 31 -8 3 6 11 10 16 10 6 0 7 -5 3 -12 -5 -8 2 -9 26 -5 27 6 30 5 21
-7 -6 -7 -39 -19 -74 -25 -98 -19 -136 -38 -108 -55 5 -3 20 3 34 14 26 21 57
27 57 11 0 -10 -61 -41 -80 -41 -22 0 -80 -41 -80 -56 0 -12 4 -12 20 -2 11 7
20 18 20 25 0 14 2 15 40 19 14 1 36 6 50 10 24 7 24 7 8 -13 -10 -11 -18 -22
-18 -26 0 -3 8 -4 18 0 9 3 0 -11 -20 -33 -21 -22 -38 -45 -38 -52 0 -6 -9
-16 -20 -22 -11 -6 -18 -15 -15 -21 4 -5 -1 -9 -9 -9 -8 0 -17 4 -21 10 -3 5
-12 7 -20 3 -24 -9 -17 10 20 49 19 21 49 42 67 47 33 9 33 9 5 10 -19 1 -26
5 -21 13 5 7 3 8 -5 4 -7 -5 -10 -10 -8 -13 3 -2 -13 -22 -36 -43 -22 -22 -41
-50 -42 -62 -1 -13 -7 -22 -13 -21 -5 1 -15 -4 -21 -11 -10 -12 -6 -13 26 -5
56 13 73 11 67 -6 -4 -8 1 -17 10 -21 29 -11 13 -89 -32 -151 -16 -23 -19 -31
-8 -27 14 5 53 78 70 127 4 11 11 15 18 11 9 -5 8 -2 -1 10 -8 9 -10 16 -5 14
5 -1 21 10 37 25 15 16 32 25 39 21 7 -4 8 -3 4 4 -4 7 -3 12 2 12 10 0 35 50
28 57 -2 2 -7 -5 -11 -16 -3 -12 -19 -28 -34 -35 -15 -8 -33 -22 -40 -30 -19
-23 -34 -20 -26 5 5 15 4 19 -4 15 -25 -16 -9 27 25 64 37 41 70 51 80 25 4
-8 15 -15 26 -15 10 0 16 5 13 10 -4 6 -11 7 -17 4 -7 -4 -8 -2 -4 5 4 6 10 9
14 7 4 -2 23 4 42 15 19 10 47 24 63 31 15 7 27 16 27 20 0 8 -66 -19 -90 -38
-35 -26 -44 -28 -35 -8 4 10 7 27 7 37 0 9 3 15 9 12 5 -4 12 1 15 9 3 9 10
16 16 16 5 0 6 -4 3 -10 -8 -13 -1 -13 40 4 18 8 39 24 45 36 l11 21 -41 -21
c-57 -29 -73 -20 -25 13 24 16 33 27 23 27 -26 0 -68 -22 -68 -35 0 -7 -20
-29 -45 -49 -25 -21 -45 -45 -46 -54 0 -13 -3 -11 -9 5 -10 24 1 76 21 99 7 8
21 11 35 8 13 -3 24 -2 24 2 0 15 57 74 64 67 3 -3 6 0 6 8 0 19 23 69 32 69
3 0 4 -9 1 -20 -3 -11 0 -20 6 -20 6 0 11 4 11 10 0 5 7 7 15 4 8 -4 15 -1 15
5 0 6 6 11 13 11 6 0 21 8 32 16 20 15 19 16 -5 12 -16 -2 -24 2 -22 10 3 16
-3 15 -18 -3z m-200 -89 c0 -3 -4 -8 -10 -11 -5 -3 -10 -1 -10 4 0 6 5 11 10
11 6 0 10 -2 10 -4z m30 -186 c-6 -11 -18 -20 -27 -20 -14 0 -14 2 2 20 10 11
22 20 27 20 5 0 4 -9 -2 -20z"/>
<path d="M1542 1778 c-16 -16 -15 -25 3 -25 16 0 28 24 16 31 -4 3 -13 0 -19
-6z"/>
<path d="M683 1768 c-10 -18 -13 -39 -3 -33 8 5 21 45 15 45 -2 0 -7 -6 -12
-12z"/>
<path d="M950 1740 c-8 -5 -12 -11 -9 -14 2 -3 11 -1 19 4 8 5 12 11 9 14 -2
3 -11 1 -19 -4z"/>
<path d="M749 1713 l-24 -28 28 24 c25 23 32 31 24 31 -2 0 -14 -12 -28 -27z"/>
<path d="M1656 1725 c-4 -13 -2 -14 14 -5 23 13 26 20 6 20 -8 0 -16 -7 -20
-15z"/>
<path d="M975 1715 c-16 -7 -34 -11 -39 -7 -5 3 -6 0 -2 -6 4 -6 -2 -17 -14
-24 -11 -7 -20 -17 -20 -22 0 -5 11 1 25 14 14 13 28 20 32 15 5 -4 2 -10 -4
-12 -7 -3 -13 -10 -13 -16 0 -6 10 -1 23 11 13 12 30 22 38 22 12 0 12 2 0 9
-11 7 -11 9 0 13 8 3 12 7 9 10 -3 3 -18 -1 -35 -7z"/>
<path d="M1485 1699 c-4 -17 -9 -28 -12 -25 -3 3 -17 -4 -31 -14 -27 -22 -54
-28 -34 -8 7 7 12 16 12 21 0 5 -29 -20 -64 -56 -45 -45 -62 -58 -60 -43 2 12
-5 2 -16 -21 -12 -26 -31 -46 -50 -55 -17 -7 -30 -18 -30 -23 0 -11 -69 -52
-82 -48 -4 2 -5 -3 -2 -10 3 -8 0 -25 -5 -40 -7 -18 -7 -27 2 -30 7 -2 8 -8 4
-13 -13 -13 -27 18 -21 46 5 22 3 22 -17 -8 -13 -19 -27 -31 -35 -28 -8 3 -14
-1 -14 -9 0 -7 -6 -20 -13 -27 -27 -27 -67 -85 -67 -96 0 -7 5 -12 10 -12 6 0
10 4 10 10 0 5 16 32 36 60 29 40 42 50 65 50 40 0 37 -23 -6 -49 -20 -11 -38
-29 -42 -38 -3 -10 -15 -30 -25 -45 -16 -23 -17 -28 -4 -28 8 0 16 -8 19 -18
2 -9 4 0 3 21 0 39 17 61 41 52 7 -2 10 2 7 9 -5 12 63 92 71 84 4 -4 12 -40
14 -62 1 -4 7 -6 15 -3 24 9 39 -19 32 -58 -4 -19 -10 -35 -15 -35 -4 0 -8 -6
-9 -12 -1 -7 -4 -26 -7 -43 -5 -27 -3 -26 14 10 11 22 20 48 20 59 1 14 4 16
15 7 19 -16 5 -82 -29 -131 -16 -23 -32 -43 -37 -46 -4 -3 -8 -14 -8 -25 0
-29 22 -18 31 15 8 29 36 66 50 66 15 0 15 -35 0 -53 -18 -22 -22 -118 -4
-124 10 -4 10 37 -1 72 -2 6 1 19 6 30 8 18 8 18 4 -2 -2 -13 0 -23 6 -23 14
0 31 20 61 71 17 29 34 46 45 45 18 -1 19 2 21 64 1 28 5 40 16 40 15 0 19 15
16 57 -1 11 2 24 7 27 5 3 7 17 5 31 -3 13 -9 22 -14 20 -4 -3 -6 -12 -3 -20
3 -8 -1 -21 -9 -29 -8 -8 -12 -25 -10 -39 3 -14 -2 -29 -12 -37 -15 -12 -16
-8 -14 53 1 36 6 64 11 61 5 -3 6 6 2 20 -4 16 -2 26 4 26 6 0 18 15 27 33 12
25 13 43 6 73 l-9 39 -1 -40 c-2 -56 -11 -85 -28 -85 -8 0 -12 -4 -9 -9 3 -5
-12 -24 -33 -42 -22 -17 -42 -40 -44 -51 -3 -10 -11 -18 -17 -18 -8 0 -10 7
-5 23 4 12 8 36 9 53 1 17 10 43 20 59 18 27 20 28 27 10 6 -17 8 -15 8 8 1
16 7 43 15 60 45 106 49 131 6 42 -16 -33 -30 -53 -30 -45 0 8 -12 -9 -27 -38
-15 -29 -30 -52 -34 -52 -5 0 -6 7 -3 15 4 8 2 15 -4 15 -11 0 -22 -23 -22
-46 0 -8 3 -13 8 -13 20 3 32 -2 26 -12 -3 -6 -8 -32 -10 -58 -2 -37 0 -48 11
-48 8 0 15 5 15 11 0 15 48 66 61 66 7 0 9 -16 6 -42 -3 -22 -1 -55 4 -72 7
-24 6 -34 -7 -43 -10 -7 -11 -13 -5 -18 6 -3 11 -1 11 4 0 6 4 11 8 11 5 0 9
-7 9 -15 0 -8 -6 -15 -13 -15 -8 0 -21 -14 -30 -32 -9 -18 -23 -38 -30 -46 -8
-7 -14 -20 -14 -28 0 -8 -4 -14 -10 -14 -12 0 -12 2 -1 33 8 19 6 27 -5 31 -8
3 -14 10 -14 16 0 6 5 8 11 4 9 -5 10 1 5 20 -4 15 -2 26 4 26 6 0 6 9 -1 26
-5 15 -7 36 -4 48 5 15 4 17 -3 7 -10 -14 -17 -2 -27 51 -3 12 -9 24 -15 26
-5 2 -10 13 -10 25 -1 22 -1 22 -17 2 -15 -19 -15 -18 -9 14 3 19 17 49 31 67
27 36 30 44 15 44 -5 0 -10 -7 -10 -15 0 -8 -6 -15 -14 -15 -8 0 -16 -10 -18
-22 -5 -36 -33 -28 -36 11 -2 21 0 31 7 26 6 -3 11 -1 11 4 0 6 6 11 13 11 7
0 32 16 55 36 23 19 42 32 42 29 0 -4 6 -2 14 4 11 10 15 8 19 -6 3 -10 5 -3
6 15 2 61 111 137 111 77 0 -7 -4 -15 -8 -17 -9 -4 -52 -63 -52 -72 0 -19 23
-1 31 24 6 16 15 28 19 25 5 -3 15 14 22 37 16 47 36 55 54 21 6 -13 14 -20
17 -16 4 3 7 -3 7 -15 0 -14 -5 -20 -13 -16 -14 5 -45 -69 -39 -93 2 -7 -2
-13 -8 -13 -5 0 -10 6 -11 13 -4 58 -18 92 -20 46 0 -13 -2 -34 -3 -46 -4 -31
11 -53 23 -34 5 7 14 10 20 7 7 -5 11 2 11 18 0 31 18 73 45 102 11 12 26 30
34 39 8 10 23 15 37 12 17 -3 28 3 41 22 14 22 14 24 1 13 -9 -7 -25 -15 -37
-17 -18 -3 -20 -1 -11 15 19 35 10 34 -25 -4 -19 -21 -39 -35 -46 -31 -7 5 2
20 25 44 26 27 33 40 26 51 -7 10 -10 11 -10 3 0 -7 -11 -13 -25 -13 -27 0
-34 17 -10 26 8 4 12 10 9 15 -10 17 -22 9 -29 -22z m19 -59 c-15 -16 -31 -27
-36 -24 -12 8 31 54 49 54 8 0 3 -12 -13 -30z m-324 -374 c0 -3 -4 -8 -10 -11
-5 -3 -10 -1 -10 4 0 6 5 11 10 11 6 0 10 -2 10 -4z"/>
<path d="M906 1707 c3 -10 9 -15 12 -12 3 3 0 11 -7 18 -10 9 -11 8 -5 -6z"/>
<path d="M1438 1713 c-20 -5 -24 -23 -5 -23 6 0 21 7 31 15 20 15 11 18 -26 8z"/>
<path d="M620 1689 c-22 -18 -22 -19 -3 -10 12 6 25 16 28 21 9 15 3 12 -25
-11z"/>
<path d="M833 1685 l-28 -26 38 22 c37 21 45 29 28 29 -6 0 -23 -11 -38 -25z"/>
<path d="M712 1645 c-20 -19 -32 -35 -26 -35 5 0 25 16 44 35 44 45 31 45 -18
0z"/>
<path d="M870 1670 c-9 -6 -10 -10 -3 -10 6 0 15 5 18 10 8 12 4 12 -15 0z"/>
<path d="M1645 1640 c-3 -5 -1 -10 4 -10 6 0 11 5 11 10 0 6 -2 10 -4 10 -3 0
-8 -4 -11 -10z"/>
<path d="M950 1626 c0 -8 -6 -17 -12 -19 -10 -4 -10 -6 -1 -6 7 -1 17 8 23 19
7 14 7 20 0 20 -5 0 -10 -6 -10 -14z"/>
<path d="M719 1613 c-13 -16 -12 -17 4 -4 9 7 17 15 17 17 0 8 -8 3 -21 -13z"/>
<path d="M774 1621 c3 -5 -12 -25 -34 -45 -22 -20 -40 -38 -40 -41 0 -13 20
-2 53 30 36 35 48 65 26 65 -5 0 -8 -4 -5 -9z"/>
<path d="M842 1606 c-15 -17 -19 -25 -10 -28 8 -3 2 -16 -19 -36 -17 -18 -28
-32 -23 -32 5 0 12 5 15 10 4 6 10 8 15 5 11 -7 23 13 26 43 2 13 11 33 20 43
25 28 3 23 -24 -5z"/>
<path d="M555 1609 c-11 -17 1 -21 15 -4 8 9 8 15 2 15 -6 0 -14 -5 -17 -11z"/>
<path d="M900 1610 c0 -5 5 -10 11 -10 5 0 7 5 4 10 -3 6 -8 10 -11 10 -2 0
-4 -4 -4 -10z"/>
<path d="M1627 1579 c-21 -22 -37 -47 -37 -56 0 -8 -9 -26 -20 -40 -15 -19
-17 -30 -10 -44 10 -17 5 -60 -8 -84 -10 -16 -11 -55 -2 -55 4 0 7 10 6 23 -2
12 3 28 10 35 10 9 14 -4 18 -66 2 -42 8 -96 11 -118 4 -26 3 -44 -4 -48 -6
-4 -11 -12 -11 -19 0 -6 11 0 25 15 25 27 33 44 15 33 -5 -3 -7 9 -5 30 4 26
1 35 -10 35 -8 0 -15 8 -14 18 0 10 3 12 6 5 10 -26 25 -13 20 17 -4 16 0 48
8 71 20 56 19 60 -6 20 -25 -42 -37 -34 -14 11 22 42 36 98 24 98 -8 0 -13
-22 -10 -42 0 -5 -3 -8 -9 -8 -5 0 -10 -7 -10 -15 0 -8 -4 -15 -10 -15 -13 0
-13 45 1 93 7 27 15 37 25 33 17 -6 18 -1 4 24 -7 13 -7 21 2 26 7 4 8 3 4 -4
-4 -7 -5 -12 -2 -12 3 0 15 18 26 40 11 22 19 40 17 40 -2 0 -20 -18 -40 -41z"/>
<path d="M1696 1594 c-11 -7 -16 -17 -13 -21 4 -4 15 1 24 10 22 21 14 30 -11
11z"/>
<path d="M1442 1580 c-9 -14 -9 -20 -1 -20 8 0 7 -6 -2 -17 -11 -15 -11 -16 1
-6 7 7 14 24 16 38 3 30 2 31 -14 5z"/>
<path d="M652 1561 c-17 -17 -32 -33 -32 -37 0 -5 17 8 37 27 21 18 40 35 42
37 2 1 0 2 -5 2 -5 0 -24 -13 -42 -29z"/>
<path d="M1765 1581 c-3 -5 -2 -12 3 -15 5 -3 9 1 9 9 0 17 -3 19 -12 6z"/>
<path d="M488 1573 c7 -3 16 -2 19 1 4 3 -2 6 -13 5 -11 0 -14 -3 -6 -6z"/>
<path d="M1060 1565 c-7 -9 -8 -15 -2 -15 5 0 12 7 16 15 3 8 4 15 2 15 -2 0
-9 -7 -16 -15z"/>
<path d="M1722 1568 c-18 -18 -15 -38 5 -31 11 4 13 8 5 11 -10 3 -10 7 -1 18
14 17 8 19 -9 2z"/>
<path d="M784 1561 c7 -11 -28 -43 -38 -34 -4 4 -4 0 0 -10 3 -9 2 -17 -3 -17
-5 0 -18 -8 -29 -18 -10 -10 -27 -21 -36 -25 -18 -6 -25 -27 -10 -27 12 0 132
118 132 130 0 5 -5 10 -11 10 -5 0 -8 -4 -5 -9z"/>
<path d="M528 1553 c7 -3 16 -2 19 1 4 3 -2 6 -13 5 -11 0 -14 -3 -6 -6z"/>
<path d="M1544 1524 c3 -9 6 -18 6 -20 0 -3 4 -3 10 1 11 7 2 35 -12 35 -6 0
-7 -7 -4 -16z"/>
<path d="M1650 1510 c-7 -14 -7 -20 0 -20 5 0 10 6 10 14 0 8 6 17 13 19 9 4
9 6 0 6 -7 1 -17 -8 -23 -19z"/>
<path d="M820 1490 c-14 -10 -22 -21 -19 -24 3 -3 16 5 29 19 28 30 24 32 -10
5z"/>
<path d="M1509 1503 c-2 -29 -11 -58 -20 -70 -9 -10 -8 -13 4 -13 13 0 14 -6
6 -36 -6 -19 -7 -48 -4 -64 3 -15 2 -31 -4 -34 -6 -4 -7 -14 -4 -22 5 -13 1
-15 -18 -9 -20 7 -22 5 -13 -6 7 -8 14 -33 18 -56 4 -34 3 -41 -9 -36 -17 6
-20 -14 -5 -37 8 -12 10 -12 10 5 2 44 21 -30 25 -93 1 -35 6 -66 9 -69 3 -4
6 0 6 8 1 8 7 -2 14 -21 8 -19 20 -49 27 -66 11 -28 9 -39 -13 -101 -21 -56
-23 -70 -12 -70 8 0 13 6 10 13 -3 8 5 20 17 29 20 14 21 15 2 16 -19 0 -19 1
-2 8 10 4 18 10 18 14 -1 4 -1 19 -1 33 0 22 2 25 15 14 8 -7 15 -18 15 -24 0
-6 9 -17 21 -24 19 -12 20 -12 13 10 -4 13 -8 42 -9 66 -2 24 -6 46 -9 49 -4
4 -6 -6 -5 -23 4 -74 -17 -69 -27 7 -4 27 -10 52 -14 54 -5 3 -6 -4 -3 -15 10
-37 -8 -20 -29 28 -34 76 -62 282 -39 282 6 0 11 10 11 23 0 13 3 27 6 30 11
10 13 67 3 67 -11 0 -6 45 10 83 9 23 8 31 -4 43 -8 9 -15 12 -16 7z"/>
<path d="M1665 1471 c-12 -40 -8 -102 9 -119 16 -16 16 -15 7 11 -8 21 -8 27
2 26 23 -3 40 1 34 8 -4 3 -2 12 4 20 6 7 8 13 3 13 -5 0 -2 5 6 10 11 7 11
10 2 10 -7 0 -18 -13 -23 -30 -14 -38 -30 -29 -25 14 5 41 -9 69 -19 37z"/>
<path d="M532 1467 c-17 -20 -12 -40 6 -28 8 5 12 16 10 26 -3 17 -4 17 -16 2z"/>
<path d="M638 1473 c6 -2 18 -2 25 0 6 3 1 5 -13 5 -14 0 -19 -2 -12 -5z"/>
<path d="M761 1466 c-13 -7 -19 -16 -14 -19 6 -4 18 2 28 13 21 23 19 24 -14
6z"/>
<path d="M482 1450 c-29 -28 -28 -34 3 -14 14 9 25 20 25 25 0 13 -4 11 -28
-11z"/>
<path d="M588 1449 l-23 -20 25 13 c14 6 31 11 38 10 17 -4 15 5 -3 11 -7 3
-24 -3 -37 -14z"/>
<path d="M701 1430 c-13 -11 -18 -20 -13 -20 6 0 14 5 17 10 4 6 10 8 14 6 4
-3 8 1 8 9 0 8 -1 15 -1 15 -1 -1 -12 -10 -25 -20z"/>
<path d="M815 1440 c-3 -5 3 -10 14 -10 12 0 21 5 21 10 0 6 -6 10 -14 10 -8
0 -18 -4 -21 -10z"/>
<path d="M913 1428 c-4 -7 -8 -20 -10 -28 -1 -10 3 -9 13 4 14 19 18 36 10 36
-3 0 -8 -6 -13 -12z"/>
<path d="M1026 1423 c-6 -14 -5 -15 5 -6 7 7 10 15 7 18 -3 3 -9 -2 -12 -12z"/>
<path d="M1335 1420 c-5 -14 -2 -28 8 -37 13 -13 14 -11 11 18 -5 41 -10 46
-19 19z"/>
<path d="M778 1423 c7 -3 16 -2 19 1 4 3 -2 6 -13 5 -11 0 -14 -3 -6 -6z"/>
<path d="M545 1400 c-3 -10 -19 -30 -36 -44 -16 -14 -28 -29 -27 -33 2 -5 -7
-21 -18 -36 -16 -19 -27 -25 -40 -21 -17 6 -17 5 0 -8 19 -15 19 -16 -10 -48
-16 -17 -40 -36 -54 -42 -22 -9 -23 -11 -7 -17 16 -6 15 -9 -9 -31 -15 -14
-24 -20 -21 -13 4 6 3 23 -3 38 -8 20 -7 27 4 31 16 6 40 64 27 64 -4 0 -13
-11 -19 -24 -6 -13 -18 -23 -28 -23 -15 2 -17 -6 -15 -49 1 -33 -2 -55 -10
-60 -9 -5 -7 -9 7 -15 15 -6 35 10 102 79 45 47 81 90 79 96 -6 15 50 84 74
91 10 4 17 11 13 16 -4 6 -11 6 -20 -2 -8 -7 -14 -7 -14 -1 0 5 7 15 16 22 21
18 37 50 25 50 -5 0 -12 -9 -16 -20z"/>
<path d="M609 1400 c-21 -17 -21 -19 -4 -13 11 3 29 12 40 20 16 10 16 13 3
13 -9 0 -26 -9 -39 -20z"/>
<path d="M785 1400 c-3 -6 1 -7 9 -4 18 7 21 14 7 14 -6 0 -13 -4 -16 -10z"/>
<path d="M1429 1403 c0 -5 0 -35 1 -68 1 -33 -4 -73 -10 -89 -11 -30 0 -56 24
-56 8 0 8 2 0 8 -6 4 -10 18 -8 32 1 14 3 31 3 39 1 7 7 11 14 8 10 -4 12 7 9
46 -2 29 -9 55 -16 59 -8 6 -7 8 2 8 6 0 12 5 12 10 0 11 -30 14 -31 3z"/>
<path d="M469 1387 c5 -5 17 -5 28 2 16 9 15 10 -9 9 -16 -2 -24 -6 -19 -11z"/>
<path d="M620 1379 c-26 -14 -30 -19 -15 -19 11 0 34 9 50 20 38 25 12 24 -35
-1z"/>
<path d="M710 1375 c-30 -17 -43 -19 -35 -5 3 6 1 10 -5 10 -7 0 -10 -6 -7
-12 5 -14 56 -12 71 3 17 15 2 18 -24 4z"/>
<path d="M733 1347 c-27 -29 -27 -29 -4 -17 14 7 33 20 43 30 14 13 15 17 3
17 -8 0 -27 -14 -42 -30z"/>
<path d="M1402 1345 c0 -16 2 -22 5 -12 2 9 2 23 0 30 -3 6 -5 -1 -5 -18z"/>
<path d="M1300 1340 c0 -11 4 -20 8 -20 4 0 8 9 9 20 1 11 -2 20 -8 20 -5 0
-9 -9 -9 -20z"/>
<path d="M1270 1335 c0 -8 2 -15 4 -15 2 0 6 7 10 15 3 8 1 15 -4 15 -6 0 -10
-7 -10 -15z"/>
<path d="M574 1314 c-5 -21 -11 -25 -30 -21 -19 3 -22 2 -13 -9 9 -11 7 -15
-5 -20 -9 -3 -14 -10 -11 -15 3 -4 -7 -15 -22 -24 -15 -9 -19 -13 -8 -10 11 4
28 10 37 12 10 3 15 10 11 16 -4 6 0 8 10 4 10 -3 17 -2 17 3 0 5 10 19 23 31
12 12 15 18 7 14 -12 -6 -13 -5 -2 6 14 16 16 39 2 39 -5 0 -13 -12 -16 -26z"/>
<path d="M642 1310 c-63 -46 -53 -49 27 -9 20 10 30 18 23 19 -7 0 -10 5 -7
10 10 16 0 12 -43 -20z"/>
<path d="M410 1314 c0 -8 5 -12 10 -9 6 4 8 11 5 16 -9 14 -15 11 -15 -7z"/>
<path d="M803 1313 c-7 -2 -13 -11 -13 -19 0 -8 -7 -14 -16 -14 -10 0 -14 -6
-11 -14 8 -20 -16 -26 -29 -8 -10 14 -12 13 -18 -4 -3 -11 -20 -28 -37 -38
-17 -10 -28 -20 -25 -23 3 -3 16 1 28 9 13 8 32 18 42 21 15 6 17 5 8 -6 -7
-8 -9 -16 -6 -20 3 -3 -7 -13 -23 -23 -15 -10 -30 -19 -32 -20 -1 -2 0 -8 4
-14 9 -14 41 19 81 82 16 27 35 48 42 48 7 0 10 5 7 10 -4 6 -1 9 5 8 7 -2 14
5 15 15 3 17 -1 19 -22 10z"/>
<path d="M900 1309 c0 -19 -52 -129 -61 -129 -5 0 -9 -4 -9 -10 0 -20 28 3 49
41 29 51 42 97 30 104 -5 4 -9 1 -9 -6z"/>
<path d="M1663 1285 c-7 -21 -8 -46 -3 -63 l8 -27 2 30 c1 17 4 45 6 63 5 42
0 41 -13 -3z"/>
<path d="M1710 1301 c0 -5 5 -13 10 -16 6 -3 10 -2 10 4 0 5 -4 13 -10 16 -5
3 -10 2 -10 -4z"/>
<path d="M735 1280 c3 -5 8 -10 11 -10 2 0 4 5 4 10 0 6 -5 10 -11 10 -5 0 -7
-4 -4 -10z"/>
<path d="M655 1264 c-11 -8 -25 -12 -33 -9 -7 2 -10 0 -7 -5 3 -6 -2 -10 -12
-10 -10 -1 -29 -8 -43 -16 -17 -11 -19 -13 -5 -9 25 9 46 13 65 15 17 1 81 50
65 50 -5 -1 -19 -7 -30 -16z"/>
<path d="M1696 1265 c-3 -8 -1 -15 4 -15 6 0 10 7 10 15 0 8 -2 15 -4 15 -2 0
-6 -7 -10 -15z"/>
<path d="M842 1239 c-7 -11 -27 -26 -44 -33 -24 -10 -27 -14 -14 -19 21 -8 63
18 72 45 8 27 1 31 -14 7z"/>
<path d="M1534 1252 c4 -7 2 -12 -5 -12 -8 0 -10 -12 -5 -37 11 -68 17 -97 21
-101 2 -2 -1 -15 -6 -29 -6 -16 -6 -31 1 -41 8 -15 10 -15 10 3 1 11 3 29 5
40 14 84 13 115 -2 115 -11 0 -14 8 -11 30 3 17 0 34 -5 37 -6 3 -7 1 -3 -5z"/>
<path d="M806 1235 c-3 -8 -1 -15 3 -15 5 0 11 7 15 15 3 8 1 15 -3 15 -5 0
-11 -7 -15 -15z"/>
<path d="M1296 1223 c-8 -25 -6 -39 6 -35 6 2 8 -8 6 -23 -3 -14 -1 -25 4 -25
9 0 5 86 -5 96 -3 3 -8 -3 -11 -13z"/>
<path d="M1693 1225 c0 -8 4 -15 9 -15 4 0 8 7 8 15 0 8 -4 15 -8 15 -5 0 -9
-7 -9 -15z"/>
<path d="M1730 1230 c0 -5 5 -10 10 -10 6 0 10 5 10 10 0 6 -4 10 -10 10 -5 0
-10 -4 -10 -10z"/>
<path d="M1151 1207 c-16 -41 -13 -57 5 -24 8 16 13 34 11 40 -3 7 -10 -1 -16
-16z"/>
<path d="M1040 1194 c0 -8 5 -12 10 -9 6 4 8 11 5 16 -9 14 -15 11 -15 -7z"/>
<path d="M1102 1189 c3 -8 -3 -21 -12 -29 -9 -8 -22 -30 -30 -48 -8 -21 -16
-29 -20 -22 -5 9 -9 9 -14 1 -4 -6 -4 -15 -1 -21 3 -5 1 -10 -6 -10 -10 0 -10
-3 -2 -11 13 -13 36 -3 28 12 -4 5 -1 9 4 9 6 0 11 6 11 14 0 8 3 16 8 18 4 2
19 19 33 38 23 31 25 37 11 49 -13 12 -14 12 -10 0z"/>
<path d="M480 1181 c0 -7 -7 -20 -16 -29 -18 -17 -48 -26 -38 -11 3 5 1 9 -4
9 -8 0 -23 -22 -26 -40 -1 -3 -13 -22 -28 -43 -16 -25 -28 -34 -33 -27 -4 6 1
21 11 34 11 12 8 11 -6 -4 -21 -21 -35 -25 -85 -26 -86 -2 -123 -8 -137 -22
-6 -6 -16 -12 -21 -12 -4 0 -28 -14 -53 -30 -29 -21 -44 -38 -44 -52 0 -20 1
-20 13 -5 6 9 28 27 47 41 19 14 45 33 57 41 17 13 26 14 42 5 14 -7 21 -7 21
0 0 5 9 10 19 10 11 0 23 5 26 10 13 20 53 10 79 -21 31 -37 33 -69 6 -94 -13
-12 -18 -25 -14 -38 4 -13 2 -17 -5 -13 -6 4 -11 1 -11 -7 0 -19 -28 -42 -38
-32 -4 4 -1 10 6 12 6 3 12 9 12 15 0 16 -28 -11 -43 -40 -14 -29 -63 -69 -73
-59 -4 3 6 20 20 38 28 33 29 53 1 25 -20 -20 -26 -20 -19 -1 4 9 0 15 -10 15
-9 0 -15 -3 -15 -7 1 -5 1 -15 0 -23 -1 -12 -3 -13 -10 -1 -6 9 -11 10 -15 2
-4 -6 -4 -11 0 -11 4 0 -1 -9 -10 -19 -10 -11 -25 -17 -34 -14 -13 4 -12 2 3
-10 16 -13 17 -17 6 -31 -12 -14 -12 -16 4 -10 13 5 16 4 11 -4 -4 -7 -2 -12
3 -12 6 0 11 7 11 15 0 8 6 15 14 15 8 0 16 5 18 12 3 8 13 2 28 -15 13 -15
30 -27 37 -27 19 0 16 -10 -12 -36 -14 -13 -25 -27 -25 -32 0 -14 -57 -61 -66
-54 -4 4 -4 1 1 -7 4 -8 2 -17 -6 -22 -8 -5 -9 -9 -3 -9 6 0 21 11 34 25 12
13 28 22 34 18 6 -3 8 -3 4 1 -10 12 120 179 133 171 13 -9 21 15 9 30 -9 11
-15 9 -35 -11 -14 -14 -25 -29 -25 -34 0 -11 -3 -12 -39 -14 -40 -2 -33 17 20
53 60 41 104 94 95 117 -4 10 -1 14 6 12 20 -7 21 -38 3 -58 -11 -12 -13 -20
-6 -25 6 -3 11 1 11 9 0 8 5 18 11 22 8 4 9 -1 3 -17 -4 -13 -9 -37 -10 -52
-1 -15 -7 -34 -13 -41 -6 -7 -8 -15 -6 -18 3 -3 1 -17 -4 -32 -9 -23 -9 -25 7
-15 16 10 19 21 25 89 2 30 11 38 22 20 3 -5 14 -9 23 -9 15 1 15 2 -1 6 -9 2
-14 9 -11 15 4 7 2 8 -4 4 -7 -4 -12 -1 -12 8 0 8 10 17 23 19 l22 4 -22 2
c-13 0 -23 4 -24 9 -8 75 -5 102 12 102 6 0 7 -10 3 -22 -6 -20 -4 -20 16 5
12 15 20 31 16 34 -3 4 -6 1 -6 -5 0 -7 -4 -12 -10 -12 -5 0 -10 7 -10 15 0 9
-6 12 -15 9 -8 -4 -15 -2 -15 2 0 12 20 41 20 31 0 -5 8 -1 17 9 13 13 15 18
5 22 -9 3 -6 10 9 23 12 10 17 19 11 19 -14 0 76 84 92 86 24 3 56 17 56 25 0
16 -30 10 -37 -7 -6 -15 -8 -15 -20 2 -7 10 -13 13 -13 5z m-355 -415 c-18
-28 -42 -40 -50 -26 -4 6 0 10 8 10 8 0 22 9 32 20 25 27 29 25 10 -4z"/>
<path d="M922 1156 c-21 -20 -42 -33 -46 -29 -3 3 -6 -1 -6 -10 0 -27 22 -19
64 23 50 51 41 63 -12 16z"/>
<path d="M620 1170 c-12 -8 -10 -10 8 -10 13 0 20 4 17 10 -7 12 -6 12 -25 0z"/>
<path d="M743 1156 c-15 -13 -26 -26 -23 -29 3 -3 21 8 40 24 19 16 29 29 23
29 -7 0 -25 -11 -40 -24z"/>
<path d="M1393 1113 c-11 -38 -26 -67 -32 -65 -6 1 -11 -1 -12 -5 0 -5 -2 -16
-4 -27 -3 -14 -1 -16 8 -7 14 14 30 15 22 1 -3 -5 -1 -10 5 -10 7 0 10 6 7 14
-3 8 0 33 7 56 17 57 31 35 35 -55 2 -38 7 -75 12 -82 7 -7 6 -14 -1 -18 -14
-8 -13 -52 2 -61 6 -4 8 -3 4 4 -3 6 -1 23 6 39 6 15 12 42 13 58 1 17 5 41 8
55 4 14 4 19 1 13 -13 -30 -26 -11 -20 28 4 26 3 38 -4 34 -6 -3 -7 0 -4 9 4
11 0 16 -13 16 -16 0 -18 6 -15 35 6 53 -2 42 -25 -32z"/>
<path d="M1683 1174 c3 -3 1 -17 -4 -31 -6 -16 -6 -31 1 -41 7 -14 9 -11 10
15 0 17 3 38 6 47 4 10 1 16 -7 16 -7 0 -10 -3 -6 -6z"/>
<path d="M749 1120 c-28 -27 -56 -50 -63 -50 -12 0 -66 -39 -54 -40 4 0 24 9
45 19 21 11 45 21 53 23 8 2 27 19 42 38 15 19 32 41 38 48 7 8 7 12 0 12 -5
0 -33 -22 -61 -50z"/>
<path d="M1263 1149 c-2 -17 1 -18 13 -9 17 15 18 30 1 30 -7 0 -13 -9 -14
-21z"/>
<path d="M560 1150 c-13 -9 -13 -10 0 -10 8 0 22 5 30 10 13 9 13 10 0 10 -8
0 -22 -5 -30 -10z"/>
<path d="M1119 1133 c-10 -11 -10 -14 -1 -9 6 4 12 2 12 -3 0 -6 -5 -11 -12
-11 -6 0 -8 -3 -4 -7 9 -9 -54 -73 -73 -74 -9 0 -11 -3 -5 -5 22 -9 87 45 101
84 15 45 15 42 4 42 -5 0 -15 -8 -22 -17z"/>
<path d="M494 1124 c-18 -15 -18 -15 2 -5 12 6 24 7 28 4 3 -3 6 -1 6 5 0 16
-12 15 -36 -4z"/>
<path d="M591 1124 c0 -11 3 -14 6 -6 3 7 2 16 -1 19 -3 4 -6 -2 -5 -13z"/>
<path d="M610 1131 c0 -5 5 -13 10 -16 6 -3 10 -2 10 4 0 5 -4 13 -10 16 -5 3
-10 2 -10 -4z"/>
<path d="M953 1110 c-9 -11 -20 -15 -23 -10 -3 5 -14 -5 -24 -23 -14 -26 -14
-28 -1 -12 9 11 21 19 27 17 5 -1 16 2 22 8 7 5 15 7 18 5 3 -3 8 3 11 15 7
26 -8 26 -30 0z"/>
<path d="M1280 1115 c-9 -11 -9 -15 -1 -15 7 0 9 -5 5 -12 -4 -7 -3 -10 1 -5
8 6 16 47 10 47 -2 0 -8 -7 -15 -15z"/>
<path d="M790 1095 c-20 -24 -6 -27 20 -5 17 15 19 20 8 20 -9 0 -21 -7 -28
-15z"/>
<path d="M547 1084 c4 -10 10 -11 24 -3 24 13 24 14 -5 15 -17 1 -23 -2 -19
-12z"/>
<path d="M1625 1090 c-3 -5 -1 -10 4 -10 6 0 11 5 11 10 0 6 -2 10 -4 10 -3 0
-8 -4 -11 -10z"/>
<path d="M864 1082 c3 -5 -4 -19 -15 -30 -11 -12 -16 -22 -11 -22 12 0 42 34
42 48 0 7 -5 12 -11 12 -5 0 -8 -4 -5 -8z"/>
<path d="M1261 1074 c0 -11 3 -14 6 -6 3 7 2 16 -1 19 -3 4 -6 -2 -5 -13z"/>
<path d="M440 1069 c0 -5 11 -9 25 -9 14 0 25 2 25 4 0 2 -11 6 -25 8 -14 3
-25 1 -25 -3z"/>
<path d="M967 1062 c-24 -27 -21 -36 4 -11 11 11 19 23 16 25 -2 2 -11 -4 -20
-14z"/>
<path d="M580 1055 c0 -8 2 -15 4 -15 2 0 6 7 10 15 3 8 1 15 -4 15 -6 0 -10
-7 -10 -15z"/>
<path d="M1612 1039 c-2 -18 2 -28 8 -24 5 3 8 15 7 25 -5 32 -13 31 -15 -1z"/>
<path d="M1143 1048 c-13 -16 -26 -58 -19 -58 8 0 38 61 33 66 -2 3 -9 -1 -14
-8z"/>
<path d="M694 1035 c-10 -8 -14 -15 -8 -15 6 0 17 7 24 15 16 19 9 19 -16 0z"/>
<path d="M722 1028 c-15 -15 -16 -31 0 -26 6 2 12 12 14 21 3 20 2 21 -14 5z"/>
<path d="M970 1000 c-17 -22 -27 -40 -21 -40 6 0 11 4 11 9 0 5 14 23 31 40
17 17 26 31 21 31 -6 0 -25 -18 -42 -40z"/>
<path d="M1095 1020 c-20 -22 -85 -63 -84 -52 5 30 -3 34 -19 9 -10 -15 -28
-36 -40 -48 -12 -11 -22 -24 -22 -29 0 -12 30 -14 30 -2 0 4 10 18 21 32 17
21 20 22 15 5 -6 -19 -5 -19 8 -2 8 10 17 18 20 18 15 -2 85 52 89 70 6 24 4
24 -18 -1z"/>
<path d="M1664 1015 c7 -36 12 -41 19 -16 3 11 -2 26 -10 32 -12 10 -13 8 -9
-16z"/>
<path d="M1710 1030 c0 -5 5 -10 10 -10 6 0 10 5 10 10 0 6 -4 10 -10 10 -5 0
-10 -4 -10 -10z"/>
<path d="M433 1023 c-7 -2 -13 -9 -13 -15 0 -7 4 -7 13 0 6 5 21 12 32 15 20
5 20 5 0 5 -11 0 -26 -2 -32 -5z"/>
<path d="M591 1013 c-1 -17 16 -25 25 -12 4 7 3 9 -4 5 -5 -3 -13 0 -15 6 -4
9 -6 10 -6 1z"/>
<path d="M790 1005 c-6 -8 -10 -19 -8 -24 4 -14 51 10 54 27 1 7 0 8 -3 2 -3
-8 -9 -8 -18 0 -9 7 -16 6 -25 -5z"/>
<path d="M912 1011 c-11 -6 -10 -10 4 -15 15 -6 13 -11 -14 -37 -18 -17 -32
-36 -32 -41 0 -5 -10 -6 -22 -3 -13 3 -18 3 -13 -2 10 -7 11 -15 6 -40 0 -4
-6 -2 -13 5 -7 7 -17 12 -22 12 -6 0 -1 -7 11 -15 18 -13 26 -13 43 -3 11 7
20 18 20 24 0 6 16 33 35 60 19 27 35 52 35 56 0 10 -22 10 -38 -1z"/>
<path d="M241 994 c0 -12 -18 -43 -40 -70 -36 -46 -37 -49 -16 -49 14 0 21 5
18 13 -7 17 17 44 33 38 8 -3 20 1 28 9 19 20 26 19 27 -2 0 -15 2 -15 8 2 8
21 4 45 -7 43 -24 -3 -41 4 -45 20 -4 13 -5 13 -6 -4z"/>
<path d="M455 994 c-16 -7 -33 -10 -37 -7 -5 2 -8 -3 -8 -13 0 -12 4 -14 13
-7 12 10 58 24 89 28 30 3 30 12 1 12 -16 0 -41 -6 -58 -13z"/>
<path d="M630 980 c-13 -11 -21 -22 -18 -25 3 -3 17 6 32 20 32 30 20 34 -14
5z"/>
<path d="M116 974 c-3 -8 -10 -13 -15 -9 -5 3 -13 -5 -17 -17 -4 -13 -11 -26
-17 -29 -6 -4 -5 -13 2 -25 9 -17 10 -17 11 -1 0 9 6 17 14 17 7 0 16 14 20
31 3 17 10 28 16 24 5 -3 10 -2 10 4 0 17 -18 21 -24 5z"/>
<path d="M1317 965 c-2 -14 -1 -27 2 -29 4 -3 8 -18 9 -35 2 -24 -1 -29 -13
-25 -10 4 -15 0 -15 -12 0 -11 -9 -32 -20 -49 -11 -16 -20 -37 -20 -45 0 -8
11 5 25 29 14 23 25 50 25 59 0 14 2 14 13 -1 11 -15 12 -14 14 10 0 15 6 29
12 31 6 2 10 22 10 45 -2 31 -3 34 -6 14 -2 -15 -8 -25 -13 -22 -4 3 -6 14 -3
24 3 10 0 21 -5 25 -5 3 -12 -6 -15 -19z"/>
<path d="M728 964 c-16 -8 -28 -20 -28 -27 0 -9 2 -9 8 0 4 6 20 15 35 18 15
4 27 11 27 16 0 12 -10 11 -42 -7z"/>
<path d="M475 960 c-3 -5 -14 -10 -25 -10 -10 0 -21 -7 -24 -16 -9 -24 -1 -28
17 -9 17 17 31 20 22 5 -12 -19 26 -23 58 -7 31 16 31 16 5 11 -40 -9 -64 2
-48 21 7 8 10 15 7 15 -3 0 -9 -4 -12 -10z"/>
<path d="M1650 963 c5 -2 8 -9 4 -14 -3 -5 0 -9 6 -9 15 0 7 23 -8 26 -7 1 -8
0 -2 -3z"/>
<path d="M777 930 c3 -11 10 -23 16 -27 6 -4 7 -1 2 7 -6 10 -4 12 9 7 22 -9
11 9 -14 23 -15 8 -17 7 -13 -10z"/>
<path d="M1095 920 c-16 -16 -27 -31 -24 -33 2 -2 17 11 32 30 36 41 31 43 -8
3z"/>
<path d="M1379 928 c0 -13 -2 -33 -3 -46 -2 -13 2 -21 8 -19 13 4 17 87 4 87
-4 0 -8 -10 -9 -22z"/>
<path d="M1605 940 c3 -5 8 -10 11 -10 2 0 4 5 4 10 0 6 -5 10 -11 10 -5 0 -7
-4 -4 -10z"/>
<path d="M668 933 c7 -3 16 -2 19 1 4 3 -2 6 -13 5 -11 0 -14 -3 -6 -6z"/>
<path d="M1147 927 c-3 -8 1 -14 9 -14 16 0 19 13 5 21 -5 3 -11 0 -14 -7z"/>
<path d="M1269 901 c-14 -15 -33 -32 -42 -37 -11 -7 -13 -14 -7 -24 8 -12 13
-10 32 14 13 16 31 36 41 45 18 16 23 32 10 30 -5 0 -20 -13 -34 -28z"/>
<path d="M1660 894 c0 -19 4 -33 8 -30 8 5 4 66 -4 66 -2 0 -4 -16 -4 -36z"/>
<path d="M395 912 c-18 -13 -14 -28 8 -29 16 -2 18 0 8 6 -7 5 -10 14 -7 20 8
13 5 14 -9 3z"/>
<path d="M574 906 c-10 -8 -17 -17 -14 -19 3 -3 16 3 29 14 27 22 15 26 -15 5z"/>
<path d="M1500 901 c-12 -24 -13 -34 -1 -27 9 6 22 46 15 46 -2 0 -8 -9 -14
-19z"/>
<path d="M26 877 c-10 -22 -15 -44 -13 -50 3 -7 10 2 17 18 l12 30 9 -24 c5
-13 12 -21 16 -17 3 3 1 16 -5 29 -6 12 -13 29 -15 37 -3 10 -11 1 -21 -23z"/>
<path d="M482 891 c-11 -7 -11 -9 1 -14 9 -3 18 1 21 9 6 16 -2 18 -22 5z"/>
<path d="M1173 892 c-6 -4 -14 -21 -17 -37 -6 -28 -6 -29 4 -6 6 14 16 31 22
38 12 15 9 16 -9 5z"/>
<path d="M1013 863 c-36 -34 -49 -63 -27 -63 8 0 13 4 10 9 -3 4 6 19 19 31
14 13 25 18 25 11 0 -7 5 -9 10 -6 12 7 13 45 2 45 -5 0 -22 -12 -39 -27z"/>
<path d="M104 865 c-10 -8 -14 -15 -8 -15 6 0 17 7 24 15 16 19 9 19 -16 0z"/>
<path d="M1095 869 c-4 -6 -5 -12 -2 -15 2 -3 7 2 10 11 7 17 1 20 -8 4z"/>
<path d="M761 854 c0 -11 3 -14 6 -6 3 7 2 16 -1 19 -3 4 -6 -2 -5 -13z"/>
<path d="M365 850 c3 -5 8 -10 11 -10 2 0 4 5 4 10 0 6 -5 10 -11 10 -5 0 -7
-4 -4 -10z"/>
<path d="M900 849 c0 -5 5 -7 10 -4 6 3 10 8 10 11 0 2 -4 4 -10 4 -5 0 -10
-5 -10 -11z"/>
<path d="M952 848 c-15 -15 -16 -31 0 -26 6 2 12 12 14 21 3 20 2 21 -14 5z"/>
<path d="M1411 853 c-1 -7 8 -17 19 -23 14 -7 20 -7 20 0 0 5 -6 10 -14 10 -8
0 -17 6 -19 13 -4 9 -6 9 -6 0z"/>
<path d="M1469 833 c-18 -47 -26 -58 -38 -59 -6 -1 -14 -2 -18 -3 -4 0 2 -8
13 -17 18 -15 18 -15 0 -10 -17 6 -17 5 -5 -11 9 -11 10 -14 1 -9 -8 5 -15 -2
-22 -18 -5 -14 -16 -26 -25 -26 -8 0 -15 -7 -15 -16 0 -8 -4 -12 -10 -9 -5 3
-10 -1 -10 -9 0 -8 8 -19 17 -24 15 -9 14 -11 -5 -23 -13 -8 -18 -17 -12 -24
12 -14 -12 -61 -29 -57 -7 1 -10 -2 -7 -7 4 -5 0 -12 -6 -14 -7 -3 -8 -6 -3
-6 20 -1 45 27 65 73 24 58 25 64 3 68 -14 3 -9 10 19 28 21 14 36 31 33 38
-2 6 1 12 8 12 13 0 50 74 63 124 8 34 -4 33 -17 -1z"/>
<path d="M679 831 c-13 -11 -22 -22 -19 -24 3 -3 16 5 29 19 28 29 22 31 -10
5z"/>
<path d="M555 821 c-3 -5 -1 -12 4 -15 5 -3 11 1 15 9 6 16 -9 21 -19 6z"/>
<path d="M1110 815 c0 -8 -5 -14 -12 -12 -7 1 -13 -5 -14 -13 0 -8 -2 -21 -2
-28 -1 -7 -8 -12 -14 -11 -27 3 -38 -1 -38 -15 0 -8 4 -17 9 -20 5 -3 8 0 7 7
0 6 4 12 9 12 6 0 9 -4 7 -10 -2 -5 8 4 22 20 29 35 50 85 35 85 -5 0 -9 -7
-9 -15z"/>
<path d="M1166 814 c-4 -9 -4 -19 -1 -22 2 -3 7 3 11 12 4 9 4 19 1 22 -2 3
-7 -3 -11 -12z"/>
<path d="M1200 809 c0 -5 5 -7 10 -4 6 3 10 8 10 11 0 2 -4 4 -10 4 -5 0 -10
-5 -10 -11z"/>
<path d="M1 736 c-1 -64 0 -69 12 -46 7 14 10 27 5 31 -4 3 -3 21 2 39 13 45
13 47 -4 47 -9 0 -14 -19 -15 -71z"/>
<path d="M1310 795 c-7 -8 -9 -23 -5 -36 6 -18 4 -21 -10 -15 -15 5 -16 4 -6
-8 9 -11 10 -24 2 -52 -5 -20 -7 -34 -4 -30 8 8 34 75 37 96 1 8 8 25 14 38
11 18 10 22 -1 22 -8 0 -20 -7 -27 -15z"/>
<path d="M624 778 c-11 -13 -30 -28 -44 -35 -20 -9 -21 -12 -6 -12 15 -1 16
-4 6 -16 -9 -10 -9 -15 -1 -15 10 0 15 13 12 33 0 4 6 7 14 7 15 0 51 47 42
56 -2 3 -13 -5 -23 -18z"/>
<path d="M409 788 c-12 -40 23 -62 42 -27 9 18 7 19 -17 13 -19 -5 -25 -4 -20
5 4 6 5 11 2 11 -3 0 -6 -1 -7 -2z"/>
<path d="M935 780 c-3 -5 -2 -10 4 -10 5 0 13 5 16 10 3 6 2 10 -4 10 -5 0
-13 -4 -16 -10z"/>
<path d="M660 770 c0 -5 5 -10 11 -10 5 0 7 5 4 10 -3 6 -8 10 -11 10 -2 0 -4
-4 -4 -10z"/>
<path d="M1222 760 c-8 -13 -8 -20 -2 -20 6 0 13 7 17 15 9 24 -1 27 -15 5z"/>
<path d="M827 763 c-4 -3 -7 -11 -7 -17 0 -6 5 -5 12 2 6 6 9 14 7 17 -3 3 -9
2 -12 -2z"/>
<path d="M1002 765 c5 -5 -1 -14 -12 -22 -11 -8 -20 -22 -19 -31 0 -14 2 -14
6 -2 4 8 15 22 26 31 17 13 18 17 6 24 -8 5 -11 5 -7 0z"/>
<path d="M355 750 c3 -6 1 -10 -5 -10 -6 0 -9 -4 -5 -10 6 -10 35 -2 35 10 0
4 -7 11 -16 14 -8 3 -12 2 -9 -4z"/>
<path d="M1185 730 c-3 -5 -1 -10 4 -10 6 0 11 5 11 10 0 6 -2 10 -4 10 -3 0
-8 -4 -11 -10z"/>
<path d="M1469 733 c-1 -5 -1 -12 0 -17 1 -4 -6 -14 -16 -22 -16 -13 -16 -13
6 -6 26 9 41 32 21 32 -6 0 -8 5 -5 10 3 6 4 10 1 10 -3 0 -7 -3 -7 -7z"/>
<path d="M1147 701 c-4 -17 -2 -18 13 -8 10 6 16 15 14 19 -9 14 -22 9 -27
-11z"/>
<path d="M780 701 c0 -5 -12 -8 -27 -6 -26 3 -26 2 -8 -12 20 -15 20 -15 0
-11 -15 4 -21 0 -21 -13 0 -11 4 -19 8 -19 4 0 8 5 8 10 0 6 6 10 14 10 8 0
17 7 20 16 3 8 10 12 16 9 6 -3 7 1 4 9 -7 18 -14 21 -14 7z"/>
<path d="M810 706 c0 -2 7 -7 16 -10 8 -3 12 -2 9 4 -6 10 -25 14 -25 6z"/>
<path d="M1590 696 c7 -7 14 -6 21 1 9 9 7 12 -9 10 -14 -1 -18 -5 -12 -11z"/>
<path d="M89 666 c-17 -19 -37 -32 -43 -30 -6 2 -20 -10 -30 -26 -19 -34 -17
-50 4 -25 7 8 16 15 20 15 4 0 30 23 57 50 28 28 44 50 37 50 -7 0 -27 -15
-45 -34z"/>
<path d="M250 663 c-12 -21 -31 -43 -41 -51 -18 -13 -27 -42 -11 -42 4 0 18
16 32 35 29 39 46 45 35 13 -3 -13 -6 -30 -6 -38 3 -56 0 -83 -8 -99 -14 -26
-21 -71 -11 -71 7 0 20 38 25 70 0 3 4 10 8 16 10 17 17 204 7 204 -4 0 -18
-17 -30 -37z"/>
<path d="M375 690 c-3 -5 1 -10 9 -10 9 0 16 5 16 10 0 6 -4 10 -9 10 -6 0
-13 -4 -16 -10z"/>
<path d="M880 685 c-11 -13 -10 -14 4 -9 9 3 16 10 16 15 0 13 -6 11 -20 -6z"/>
<path d="M923 687 c-3 -6 -1 -7 5 -3 7 4 12 2 12 -4 0 -6 5 -8 10 -5 6 3 10
10 10 14 0 11 -30 9 -37 -2z"/>
<path d="M1063 685 c-3 -9 -3 -19 1 -22 3 -4 6 1 6 10 0 10 4 17 8 17 14 0 32
-23 32 -42 0 -16 3 -16 20 -6 18 12 19 13 2 19 -10 4 -24 14 -31 23 -17 20
-30 20 -38 1z"/>
<path d="M987 676 c-4 -10 0 -14 12 -13 11 1 17 7 14 14 -7 17 -20 17 -26 -1z"/>
<path d="M1576 663 c-6 -14 -5 -15 5 -6 7 7 10 15 7 18 -3 3 -9 -2 -12 -12z"/>
<path d="M1073 655 c-7 -8 -13 -19 -13 -25 0 -5 -4 -10 -10 -10 -5 0 -10 -6
-10 -12 1 -15 50 38 50 53 0 12 -2 11 -17 -6z"/>
<path d="M950 638 c0 -4 7 -8 15 -8 8 0 15 4 15 8 0 5 -7 9 -15 9 -8 0 -15 -4
-15 -9z"/>
<path d="M1215 640 c4 -6 11 -8 16 -5 14 9 11 15 -7 15 -8 0 -12 -5 -9 -10z"/>
<path d="M480 620 c-13 -8 -12 -10 3 -10 9 0 17 5 17 10 0 12 -1 12 -20 0z"/>
<path d="M894 622 c-6 -4 -14 -16 -17 -27 -7 -20 -7 -20 8 -1 8 11 21 23 27
28 7 4 9 8 3 8 -5 0 -15 -4 -21 -8z"/>
<path d="M728 608 c5 -5 16 -8 23 -6 8 3 3 7 -10 11 -17 4 -21 3 -13 -5z"/>
<path d="M1405 610 c-3 -6 1 -7 9 -4 18 7 21 14 7 14 -6 0 -13 -4 -16 -10z"/>
<path d="M1440 599 c0 -23 10 -28 35 -18 18 7 18 8 1 8 -11 1 -16 6 -13 14 3
8 -1 14 -9 14 -8 0 -14 -8 -14 -18z"/>
<path d="M813 595 c0 -8 4 -12 9 -9 5 3 6 10 3 15 -9 13 -12 11 -12 -6z"/>
<path d="M1271 573 c2 -24 2 -25 6 -5 2 12 9 20 14 17 5 -4 9 -1 9 4 0 6 -7
11 -15 11 -10 0 -15 -9 -14 -27z"/>
<path d="M1125 580 c-3 -5 -1 -10 4 -10 6 0 11 5 11 10 0 6 -2 10 -4 10 -3 0
-8 -4 -11 -10z"/>
<path d="M1163 565 c0 -8 4 -12 9 -9 5 3 6 10 3 15 -9 13 -12 11 -12 -6z"/>
<path d="M1880 573 c0 -5 7 -19 16 -31 8 -12 12 -22 9 -22 -3 0 1 -10 9 -22
20 -28 20 -42 2 -35 -11 4 -11 1 -2 -18 6 -13 14 -21 18 -19 4 3 10 -8 13 -23
4 -15 11 -38 16 -51 7 -17 6 -21 -3 -16 -8 5 -9 2 -4 -12 5 -10 9 -26 10 -34
0 -8 5 -18 9 -21 5 -4 7 -16 5 -29 -3 -22 -3 -22 -25 -2 -13 10 -19 23 -15 27
4 5 1 5 -5 1 -10 -5 -9 -13 3 -32 9 -13 20 -24 25 -24 5 0 9 -12 9 -27 0 -23
-2 -25 -11 -13 -9 12 -10 11 -4 -5 4 -11 9 -53 12 -92 4 -55 10 -73 20 -73 13
0 14 25 10 162 -4 147 -8 172 -35 254 -16 50 -37 104 -46 122 -16 31 -36 50
-36 35z"/>
<path d="M30 548 c-12 -22 -12 -22 6 -6 10 10 15 20 12 24 -4 3 -12 -5 -18
-18z"/>
<path d="M430 559 c0 -5 5 -7 10 -4 6 3 10 8 10 11 0 2 -4 4 -10 4 -5 0 -10
-5 -10 -11z"/>
<path d="M1212 550 c-7 -11 -8 -20 -3 -20 9 0 24 30 18 36 -1 2 -8 -6 -15 -16z"/>
<path d="M165 544 c21 -16 19 -37 -6 -52 -12 -8 -18 -19 -15 -28 3 -8 1 -14
-5 -14 -6 0 -8 -9 -4 -19 4 -13 -5 -37 -24 -67 -16 -27 -27 -52 -24 -57 7 -12
47 59 67 121 19 56 38 78 58 66 10 -6 9 -3 -1 9 -8 11 -9 17 -3 17 6 0 16 10
22 23 9 18 9 20 -2 7 -18 -20 -42 -25 -35 -7 4 11 -2 14 -19 13 -20 -1 -22 -3
-9 -12z"/>
<path d="M998 553 c6 -2 9 -10 6 -15 -4 -7 -2 -8 5 -4 13 9 5 26 -12 25 -9 0
-8 -2 1 -6z"/>
<path d="M1463 540 c1 -21 12 -26 22 -10 3 6 1 10 -5 10 -6 0 -8 5 -5 10 3 6
2 10 -4 10 -5 0 -9 -9 -8 -20z"/>
<path d="M1045 518 c-4 -18 -17 -42 -29 -53 -12 -11 -17 -17 -11 -13 7 4 15 5
18 1 4 -3 9 1 13 10 3 9 11 15 17 13 7 -1 9 -1 6 1 -3 2 -4 19 -2 38 4 44 -3
45 -12 3z"/>
<path d="M130 530 c-13 -8 -12 -10 3 -10 9 0 17 5 17 10 0 12 -1 12 -20 0z"/>
<path d="M570 525 c-8 -9 -8 -15 -2 -15 12 0 26 19 19 26 -2 2 -10 -2 -17 -11z"/>
<path d="M712 501 c-16 -17 -33 -27 -36 -23 -4 3 -4 -1 -1 -10 6 -14 12 -11
41 19 19 20 33 37 31 40 -3 2 -18 -10 -35 -26z"/>
<path d="M850 516 c0 -8 4 -17 9 -20 5 -4 7 3 4 14 -6 23 -13 26 -13 6z"/>
<path d="M1436 516 c3 -9 1 -23 -6 -31 -7 -8 -8 -15 -4 -15 5 0 15 9 21 19 10
16 9 22 -3 32 -12 10 -13 9 -8 -5z"/>
<path d="M1260 510 c-8 -5 -10 -10 -5 -10 6 0 17 5 25 10 8 5 11 10 5 10 -5 0
-17 -5 -25 -10z"/>
<path d="M106 499 c10 -17 -56 -72 -71 -59 -8 7 -16 3 -25 -15 -7 -14 -10 -28
-6 -32 4 -4 9 3 13 16 3 14 11 20 20 17 8 -3 32 11 55 32 34 32 38 40 24 45
-11 5 -15 3 -10 -4z"/>
<path d="M1225 500 c-3 -5 -1 -10 4 -10 6 0 11 5 11 10 0 6 -2 10 -4 10 -3 0
-8 -4 -11 -10z"/>
<path d="M635 474 c-9 -15 -12 -23 -6 -20 6 4 11 2 11 -3 0 -6 5 -11 11 -11 8
0 8 5 -1 15 -7 8 -8 15 -3 15 5 0 10 7 10 15 0 20 -2 19 -22 -11z"/>
<path d="M100 421 c0 -5 -6 -16 -12 -23 -51 -53 -40 -69 11 -17 34 34 39 49
16 49 -8 0 -15 -4 -15 -9z"/>
<path d="M176 388 c0 -23 6 -44 12 -46 14 -4 15 -55 2 -100 -8 -29 -7 -32 5
-22 17 14 30 93 20 117 -15 33 -15 56 -3 71 11 13 10 15 -3 10 -9 -4 -21 -2
-25 2 -6 6 -9 -8 -8 -32z"/>
<path d="M735 420 c-3 -6 1 -7 9 -4 18 7 21 14 7 14 -6 0 -13 -4 -16 -10z"/>
<path d="M1305 380 c-3 -5 1 -10 10 -10 9 0 13 5 10 10 -3 6 -8 10 -10 10 -2
0 -7 -4 -10 -10z"/>
<path d="M825 370 c-3 -5 -21 -10 -38 -10 -21 0 -28 -3 -19 -9 8 -4 13 -11 13
-15 -4 -29 13 -37 22 -12 4 11 1 13 -11 9 -14 -5 -15 -3 -5 7 9 10 15 10 26 1
15 -11 22 -7 41 27 9 14 -20 17 -29 2z"/>
<path d="M11 323 c-10 -26 -10 -27 4 -9 8 11 15 23 15 28 0 15 -7 8 -19 -19z"/>
<path d="M483 335 c-3 -9 -3 -18 -1 -21 3 -3 8 4 11 16 6 23 -1 27 -10 5z"/>
<path d="M1840 340 c0 -5 5 -10 11 -10 5 0 7 5 4 10 -3 6 -8 10 -11 10 -2 0
-4 -4 -4 -10z"/>
<path d="M570 320 c0 -5 5 -10 11 -10 5 0 7 5 4 10 -3 6 -8 10 -11 10 -2 0 -4
-4 -4 -10z"/>
<path d="M873 317 c0 -8 6 -14 14 -14 9 0 10 4 2 14 -6 7 -12 13 -14 13 -1 0
-2 -6 -2 -13z"/>
<path d="M1356 317 c3 -10 9 -15 12 -12 3 3 0 11 -7 18 -10 9 -11 8 -5 -6z"/>
<path d="M166 297 c3 -10 9 -15 12 -12 3 3 0 11 -7 18 -10 9 -11 8 -5 -6z"/>
<path d="M94 285 c-10 -8 -15 -15 -10 -15 5 0 4 -6 -1 -12 -5 -7 -10 -29 -11
-48 0 -33 0 -32 13 13 7 26 19 54 25 62 16 19 9 19 -16 0z"/>
<path d="M492 284 c-12 -8 -28 -12 -35 -8 -6 4 -5 -1 4 -11 13 -13 21 -15 37
-6 20 11 38 41 24 41 -4 0 -18 -7 -30 -16z"/>
<path d="M590 291 c0 -6 5 -11 11 -11 5 0 7 -4 4 -10 -3 -5 -1 -10 4 -10 16 0
13 16 -4 30 -10 9 -15 9 -15 1z"/>
<path d="M747 293 c-4 -3 -7 -13 -7 -22 1 -13 3 -13 11 2 11 19 8 33 -4 20z"/>
<path d="M127 283 c-11 -18 -4 -63 9 -63 16 0 19 16 4 25 -6 4 -8 15 -5 26 6
19 1 26 -8 12z"/>
<path d="M627 256 c-3 -8 5 -22 19 -33 13 -10 22 -24 19 -30 -9 -26 11 -12 28
19 13 23 21 28 26 19 7 -10 9 -9 14 2 3 9 -1 18 -9 21 -8 3 -17 0 -20 -7 -7
-19 -44 -14 -59 7 -11 14 -14 14 -18 2z"/>
<path d="M1075 250 c-10 -11 -14 -20 -9 -20 5 0 17 9 27 20 9 11 13 20 8 20
-4 0 -16 -9 -26 -20z"/>
<path d="M1155 261 c-3 -5 -2 -12 3 -15 5 -3 9 1 9 9 0 17 -3 19 -12 6z"/>
<path d="M1450 245 c-7 -8 -16 -12 -21 -9 -5 3 -9 -2 -9 -10 0 -9 7 -16 15
-16 8 0 15 7 15 15 0 7 8 19 18 24 9 6 12 11 6 11 -6 0 -17 -7 -24 -15z"/>
<path d="M1516 233 c10 -40 15 -42 12 -5 -1 18 -6 32 -10 32 -5 0 -5 -12 -2
-27z"/>
<path d="M40 219 c0 -5 5 -7 10 -4 6 3 10 8 10 11 0 2 -4 4 -10 4 -5 0 -10 -5
-10 -11z"/>
<path d="M1010 189 c0 -5 5 -7 10 -4 6 3 10 8 10 11 0 2 -4 4 -10 4 -5 0 -10
-5 -10 -11z"/>
<path d="M1136 192 c-3 -5 1 -9 9 -9 8 0 12 4 9 9 -3 4 -7 8 -9 8 -2 0 -6 -4
-9 -8z"/>
<path d="M583 175 c-7 -8 -13 -18 -13 -22 0 -4 -11 -21 -25 -37 -30 -35 -31
-40 -5 -24 10 7 27 27 37 45 9 17 20 30 25 27 4 -3 5 2 2 10 -7 19 -6 19 -21
1z"/>
<path d="M920 181 c0 -6 4 -13 10 -16 6 -3 7 1 4 9 -7 18 -14 21 -14 7z"/>
<path d="M1531 170 c0 -8 4 -24 9 -35 9 -20 9 -20 9 0 0 11 -4 27 -9 35 -9 13
-10 13 -9 0z"/>
<path d="M1418 156 c-10 -7 -18 -19 -18 -26 0 -7 9 -3 20 10 28 33 27 39 -2
16z"/>
<path d="M520 145 c0 -8 2 -15 4 -15 2 0 6 7 10 15 3 8 1 15 -4 15 -6 0 -10
-7 -10 -15z"/>
<path d="M1602 140 c0 -14 2 -19 5 -12 2 6 2 18 0 25 -3 6 -5 1 -5 -13z"/>
<path d="M730 129 c0 -10 5 -21 12 -25 7 -4 8 -3 4 5 -4 6 -3 18 3 25 8 9 7
13 -4 13 -8 0 -15 -8 -15 -18z"/>
<path d="M666 131 c-4 -7 -5 -15 -2 -18 9 -9 19 4 14 18 -4 11 -6 11 -12 0z"/>
<path d="M496 121 c-5 -7 -18 -16 -30 -21 -20 -8 -20 -9 -1 -9 27 -1 48 14 43
30 -3 10 -6 10 -12 0z"/>
<path d="M923 114 c-15 -16 -16 -24 -4 -24 8 0 24 30 19 35 -2 2 -9 -3 -15
-11z"/>
<path d="M1497 103 c-3 -16 -3 -30 -1 -33 7 -7 24 23 24 43 0 27 -17 20 -23
-10z"/>
<path d="M832 105 c3 -3 -5 -18 -17 -31 -13 -14 -21 -32 -18 -40 6 -16 26 -8
20 9 -2 6 7 21 20 33 21 20 22 22 6 28 -10 4 -15 4 -11 1z"/>
<path d="M380 75 c-7 -9 -10 -18 -6 -22 3 -3 6 -1 6 6 0 7 3 10 8 8 4 -3 13 1
20 9 10 11 10 14 -1 14 -8 0 -20 -7 -27 -15z"/>
<path d="M1026 73 c-6 -14 -5 -15 5 -6 7 7 10 15 7 18 -3 3 -9 -2 -12 -12z"/>
<path d="M450 65 c-7 -8 -8 -15 -2 -15 5 0 15 7 22 15 7 8 8 15 2 15 -5 0 -15
-7 -22 -15z"/>
<path d="M1920 71 c0 -6 5 -13 11 -16 6 -4 8 -14 4 -22 -4 -13 -3 -14 9 -4 13
11 13 15 -2 32 -19 21 -22 23 -22 10z"/>
<path d="M66 61 c-6 -9 9 -61 18 -61 2 0 6 8 8 18 6 21 -17 58 -26 43z"/>
<path d="M1391 63 c-1 -17 16 -25 25 -12 4 7 3 9 -4 5 -5 -3 -13 0 -15 6 -4 9
-6 10 -6 1z"/>
<path d="M280 50 c-8 -5 -12 -11 -9 -14 2 -3 11 -1 19 4 8 5 12 11 9 14 -2 3
-11 1 -19 -4z"/>
<path d="M1252 40 c0 -14 2 -19 5 -12 2 6 2 18 0 25 -3 6 -5 1 -5 -13z"/>
<path d="M1465 50 c-3 -5 -1 -10 4 -10 6 0 11 5 11 10 0 6 -2 10 -4 10 -3 0
-8 -4 -11 -10z"/>
<path d="M1626 48 c-7 -21 -3 -48 5 -43 4 3 6 13 5 23 -2 9 4 20 13 24 14 6
14 7 -2 7 -10 1 -19 -5 -21 -11z"/>
<path d="M7 25 c-4 -26 -4 -26 14 -6 23 24 24 31 5 31 -7 0 -16 -11 -19 -25z"/>
<path d="M1520 38 c0 -9 -8 -22 -17 -27 -16 -9 -16 -10 -2 -11 24 0 40 23 29
40 -8 13 -10 12 -10 -2z"/>
<path d="M930 31 c0 -6 4 -13 10 -16 6 -3 7 1 4 9 -7 18 -14 21 -14 7z"/>
<path d="M735 20 c-3 -5 -1 -10 4 -10 6 0 11 5 11 10 0 6 -2 10 -4 10 -3 0 -8
-4 -11 -10z"/>
</g>
<path d="M0 0 h 300 v 15 h -300 z"/>
<path d="M0 285 h 300 v 15 h -300 z"/>
<path d="M0 0 v 300 h 15 v -300 z"/>
<path d="M285 0 v 300 h 15 v -300 z"/>
</svg>
